/* XPM */
static char *east[] = {
"64 64 2 1",
". c #FFFF00",
"# c #808000",
"........########........########........########........########",
".......########........########........########........########.",
"......########........########........########........########..",
".....########........########........########........########...",
"....########........########........########........########....",
"...########........########........########........########.....",
"..########........########........########........########......",
".########........########........########........########.......",
"########........########........########........########........",
"#######........########........########........########........#",
"######........########........########........########........##",
"#####........########........########........########........###",
"####........########........########........########........####",
"###........########........########........########........#####",
"##........########........########........########........######",
"#........########........########........########........#######",
"........########........########........########........########",
".......########........########........########........########.",
"......########........########........########........########..",
".....########........########........########........########...",
"....########........########........########........########....",
"...########........########........########........########.....",
"..########........########........########........########......",
".########........########........########........########.......",
"########........########........########........########........",
"#######........########........########........########........#",
"######........########........########........########........##",
"#####........########........########........########........###",
"####........########........########........########........####",
"###........########........########........########........#####",
"##........########........########........########........######",
"#........########........########........########........#######",
"........########........########........########........########",
".......########........########........########........########.",
"......########........########........########........########..",
".....########........########........########........########...",
"....########........########........########........########....",
"...########........########........########........########.....",
"..########........########........########........########......",
".########........########........########........########.......",
"########........########........########........########........",
"#######........########........########........########........#",
"######........########........########........########........##",
"#####........########........########........########........###",
"####........########........########........########........####",
"###........########........########........########........#####",
"##........########........########........########........######",
"#........########........########........########........#######",
"........########........########........########........########",
".......########........########........########........########.",
"......########........########........########........########..",
".....########........########........########........########...",
"....########........########........########........########....",
"...########........########........########........########.....",
"..########........########........########........########......",
".########........########........########........########.......",
"########........########........########........########........",
"#######........########........########........########........#",
"######........########........########........########........##",
"#####........########........########........########........###",
"####........########........########........########........####",
"###........########........########........########........#####",
"##........########........########........########........######",
"#........########........########........########........#######"
};
