/* XPM */
static char *west[] = {
"64 64 2 1",
". c #0000FF",
"# c #000080",
"....####....####....####....####....####....####....####....####",
"....####....####....####....####....####....####....####....####",
"....####....####....####....####....####....####....####....####",
"....####....####....####....####....####....####....####....####",
"....####....####....####....####....####....####....####....####",
"....####....####....####....####....####....####....####....####",
"....####....####....####....####....####....####....####....####",
"....####....####....####....####....####....####....####....####",
"....####....####....####....####....####....####....####....####",
"....####....####....####....####....####....####....####....####",
"....####....####....####....####....####....####....####....####",
"....####....####....####....####....####....####....####....####",
"....####....####....####....####....####....####....####....####",
"....####....####....####....####....####....####....####....####",
"....####....####....####....####....####....####....####....####",
"....####....####....####....####....####....####....####....####",
"....####....####....####....####....####....####....####....####",
"....####....####....####....####....####....####....####....####",
"....####....####....####....####....####....####....####....####",
"....####....####....####....####....####....####....####....####",
"....####....####....####....####....####....####....####....####",
"....####....####....####....####....####....####....####....####",
"....####....####....####....####....####....####....####....####",
"....####....####....####....####....####....####....####....####",
"....####....####....####....####....####....####....####....####",
"....####....####....####....####....####....####....####....####",
"....####....####....####....####....####....####....####....####",
"....####....####....####....####....####....####....####....####",
"....####....####....####....####....####....####....####....####",
"....####....####....####....####....####....####....####....####",
"....####....####....####....####....####....####....####....####",
"....####....####....####....####....####....####....####....####",
"....####....####....####....####....####....####....####....####",
"....####....####....####....####....####....####....####....####",
"....####....####....####....####....####....####....####....####",
"....####....####....####....####....####....####....####....####",
"....####....####....####....####....####....####....####....####",
"....####....####....####....####....####....####....####....####",
"....####....####....####....####....####....####....####....####",
"....####....####....####....####....####....####....####....####",
"....####....####....####....####....####....####....####....####",
"....####....####....####....####....####....####....####....####",
"....####....####....####....####....####....####....####....####",
"....####....####....####....####....####....####....####....####",
"....####....####....####....####....####....####....####....####",
"....####....####....####....####....####....####....####....####",
"....####....####....####....####....####....####....####....####",
"....####....####....####....####....####....####....####....####",
"....####....####....####....####....####....####....####....####",
"....####....####....####....####....####....####....####....####",
"....####....####....####....####....####....####....####....####",
"....####....####....####....####....####....####....####....####",
"....####....####....####....####....####....####....####....####",
"....####....####....####....####....####....####....####....####",
"....####....####....####....####....####....####....####....####",
"....####....####....####....####....####....####....####....####",
"....####....####....####....####....####....####....####....####",
"....####....####....####....####....####....####....####....####",
"....####....####....####....####....####....####....####....####",
"....####....####....####....####....####....####....####....####",
"....####....####....####....####....####....####....####....####",
"....####....####....####....####....####....####....####....####",
"....####....####....####....####....####....####....####....####",
"....####....####....####....####....####....####....####....####"
};
