/* XPM */
static char *south[] = {
"64 64 2 1",
". c #00FF00",
"# c #008000",
"................................................................",
"................................................................",
"................................................................",
"................................................................",
"################################################################",
"################################################################",
"################################################################",
"################################################################",
"................................................................",
"................................................................",
"................................................................",
"................................................................",
"################################################################",
"################################################################",
"################################################################",
"################################################################",
"................................................................",
"................................................................",
"................................................................",
"................................................................",
"################################################################",
"################################################################",
"################################################################",
"################################################################",
"................................................................",
"................................................................",
"................................................................",
"................................................................",
"################################################################",
"################################################################",
"################################################################",
"################################################################",
"................................................................",
"................................................................",
"................................................................",
"................................................................",
"################################################################",
"################################################################",
"################################################################",
"################################################################",
"................................................................",
"................................................................",
"................................................................",
"................................................................",
"################################################################",
"################################################################",
"################################################################",
"################################################################",
"................................................................",
"................................................................",
"................................................................",
"................................................................",
"################################################################",
"################################################################",
"################################################################",
"################################################################",
"................................................................",
"................................................................",
"................................................................",
"................................................................",
"################################################################",
"################################################################",
"################################################################",
"################################################################"
};
