/* XPM */
static char *north[] = {
"64 64 2 1",
". c #FF0000",
"# c #800000",
"........########........########........########........########",
"........########........########........########........########",
"........########........########........########........########",
"........########........########........########........########",
"........########........########........########........########",
"........########........########........########........########",
"........########........########........########........########",
"........########........########........########........########",
"########........########........########........########........",
"########........########........########........########........",
"########........########........########........########........",
"########........########........########........########........",
"########........########........########........########........",
"########........########........########........########........",
"########........########........########........########........",
"########........########........########........########........",
"........########........########........########........########",
"........########........########........########........########",
"........########........########........########........########",
"........########........########........########........########",
"........########........########........########........########",
"........########........########........########........########",
"........########........########........########........########",
"........########........########........########........########",
"########........########........########........########........",
"########........########........########........########........",
"########........########........########........########........",
"########........########........########........########........",
"########........########........########........########........",
"########........########........########........########........",
"########........########........########........########........",
"########........########........########........########........",
"........########........########........########........########",
"........########........########........########........########",
"........########........########........########........########",
"........########........########........########........########",
"........########........########........########........########",
"........########........########........########........########",
"........########........########........########........########",
"........########........########........########........########",
"########........########........########........########........",
"########........########........########........########........",
"########........########........########........########........",
"########........########........########........########........",
"########........########........########........########........",
"########........########........########........########........",
"########........########........########........########........",
"########........########........########........########........",
"........########........########........########........########",
"........########........########........########........########",
"........########........########........########........########",
"........########........########........########........########",
"........########........########........########........########",
"........########........########........########........########",
"........########........########........########........########",
"........########........########........########........########",
"########........########........########........########........",
"########........########........########........########........",
"########........########........########........########........",
"########........########........########........########........",
"########........########........########........########........",
"########........########........########........########........",
"########........########........########........########........",
"########........########........########........########........"
};
