/* XPM */
static char *_755246729874[] = {
/* columns rows colors chars-per-pixel */
"64 64 245 2 ",
"   c #150C0B",
".  c #1B0D0B",
"X  c #150B06",
"o  c #1D110D",
"O  c #1C1412",
"+  c #0D0606",
"@  c #200F0C",
"#  c #24130D",
"$  c #2A150E",
"%  c #2C190F",
"&  c #331A0F",
"*  c #241411",
"=  c #2A1612",
"-  c #2C1914",
";  c #291B18",
":  c #331C14",
">  c #3B1D13",
",  c #351E19",
"<  c #2B221C",
"1  c #34231B",
"2  c #3B231C",
"3  c #3B2217",
"4  c #0E2434",
"5  c #142838",
"6  c #122533",
"7  c #2D2825",
"8  c #382A24",
"9  c #3A352C",
"0  c #3A3A37",
"q  c #2F3334",
"w  c #44241A",
"e  c #4B251A",
"r  c #4C2B1E",
"t  c #452519",
"y  c #54291B",
"u  c #5A301D",
"i  c #672E1C",
"p  c #442C24",
"a  c #4C2D23",
"s  c #402F2B",
"d  c #532E22",
"f  c #582F22",
"g  c #4A3328",
"h  c #5C3424",
"j  c #53342A",
"k  c #5B3A2B",
"l  c #583628",
"z  c #463B36",
"x  c #5A3D33",
"c  c #663926",
"v  c #783826",
"b  c #633E31",
"n  c #642F21",
"m  c #401D15",
"M  c #3D413B",
"N  c #434136",
"B  c #48463B",
"V  c #55453A",
"C  c #5B503D",
"Z  c #69432C",
"A  c #7A452A",
"S  c #79472B",
"D  c #694738",
"F  c #774A35",
"G  c #7C533A",
"H  c #79502D",
"J  c #1C3449",
"K  c #223A4B",
"L  c #243E52",
"P  c #373D45",
"I  c #3D4746",
"U  c #29455A",
"Y  c #374B5A",
"T  c #2C404E",
"R  c #324E64",
"E  c #35556C",
"W  c #3A566D",
"Q  c #36596E",
"!  c #3B5A6E",
"~  c #365265",
"^  c #375A70",
"/  c #3C5D73",
"(  c #375770",
")  c #2D4D63",
"_  c #3E6176",
"`  c #3F6278",
"'  c #444747",
"]  c #574945",
"[  c #5B5246",
"{  c #454D55",
"}  c #47535B",
"|  c #585758",
" . c #544F53",
".. c #675649",
"X. c #795746",
"o. c #69564F",
"O. c #79665A",
"+. c #6E6153",
"@. c #485A67",
"#. c #415E75",
"$. c #555F6E",
"%. c #416176",
"&. c #43647B",
"*. c #45687E",
"=. c #4B6579",
"-. c #556778",
";. c #57626D",
":. c #726E6B",
">. c #625E61",
",. c #85392B",
"<. c #913C3A",
"1. c #84462A",
"2. c #874B33",
"3. c #964A34",
"4. c #845334",
"5. c #8C5434",
"6. c #83543B",
"7. c #8B583B",
"8. c #935434",
"9. c #935B3A",
"0. c #9B5B3C",
"q. c #965837",
"w. c #87502F",
"e. c #A45E3B",
"r. c #9D623D",
"t. c #95613D",
"y. c #8E603D",
"u. c #A6643C",
"i. c #865B46",
"p. c #965C44",
"a. c #8D574E",
"s. c #A55649",
"d. c #AA554B",
"f. c #886449",
"g. c #996446",
"h. c #9E714A",
"j. c #886556",
"k. c #966756",
"l. c #9A745B",
"z. c #A36443",
"x. c #A86948",
"c. c #AB7658",
"v. c #B8775A",
"b. c #AD6B52",
"n. c #987667",
"m. c #8B7671",
"M. c #A67A67",
"N. c #B77B67",
"B. c #B5726B",
"V. c #C37970",
"C. c #99837A",
"Z. c #81817C",
"A. c #A8836B",
"S. c #BA846A",
"D. c #A98878",
"F. c #B68977",
"G. c #B5937D",
"H. c #AF927D",
"J. c #BF805B",
"K. c #C68977",
"L. c #C59279",
"P. c #CD8876",
"I. c #476A80",
"U. c #4A6D83",
"Y. c #4E6682",
"T. c #566D82",
"R. c #4D7086",
"E. c #4F7289",
"W. c #52758B",
"Q. c #5A7489",
"!. c #597589",
"~. c #5A7B95",
"^. c #637C94",
"/. c #6A7885",
"(. c #68839C",
"). c #7B8388",
"_. c #6C88A3",
"`. c #5F819E",
"'. c #8A8A89",
"]. c #97979A",
"[. c #8E8D8E",
"{. c #A98D83",
"}. c #AD928A",
"|. c #B39484",
" X c #B3968C",
".X c #BA9989",
"XX c #AE9894",
"oX c #B59B94",
"OX c #BA9D94",
"+X c #B49D9A",
"@X c #B69B96",
"#X c #BF8F82",
"$X c #BCA39C",
"%X c #BAA197",
"&X c #9C9DA2",
"*X c #9FA4A9",
"=X c #A3A4A7",
"-X c #BBA5A3",
";X c #BDA8A6",
":X c #A9AAB0",
">X c #A99FA7",
",X c #C69986",
"<X c #D39A88",
"1X c #C49E92",
"2X c #D99898",
"3X c #D68A87",
"4X c #CDA38D",
"5X c #C0A18E",
"6X c #D4A38D",
"7X c #C1A59B",
"8X c #C8A698",
"9X c #DAAD9A",
"0X c #D5AA96",
"qX c #DBB19D",
"wX c #C3ABA5",
"eX c #C3ADAA",
"rX c #C8ABA4",
"tX c #D7ABA2",
"yX c #C9B2AC",
"uX c #DCB4A3",
"iX c #DAB7A7",
"pX c #CBB6B4",
"aX c #CCB8B7",
"sX c #D2BDBA",
"dX c #C2AFB1",
"fX c #E5AAA7",
"gX c #E3BBAB",
"hX c #E3B6A7",
"jX c #E5BDB2",
"kX c #F0BDAE",
"lX c #E1A89D",
"zX c #D4C0BE",
"xX c #ECC5BA",
"cX c #E8C4B7",
"vX c #F1C7BC",
"bX c #E5C2AF",
"nX c #D8C5C7",
"mX c #DBCCD2",
"MX c #DCD0D7",
"NX c #F3CDC3",
"BX c #F5CBC5",
"VX c #F8D3C8",
"CX c #EAD5D5",
"ZX c #E9DBE1",
"AX c #EEE1E6",
/* pixels */
"I.U.U.U.U.R.U.U.U.U.U.R.U.U.E.E.E.E.E.E.R.R.E.E.E.R.R.R.U.U.R.U.*.&.^ ( ) U T K J 4 4 6 6 4 4 4 4 4 5 J J J J K K L K L K L K L ",
"U.I.U.U.U.U.U.U.I.*.I.*.I.I.U.U.I.I.R.U.I.R.R.I.U.R.R.I.R.R.R.E.E.W.W.W.W.W.E.E.E.I.I.( W ~ ~ R U L J J 5 5 5 4 4 4 4 5 4 5 5 5 ",
"*.*.U.I.*.I.*.*.` ` ` ` ` ` *.*.*.*.I.I.I.I.I.I.I.I.&.I.I.*.I.U.U.*.*.I.U.U.U.U.U.U.U.E.W.W.W.~.~.~.W.W.R.U.*._ ~ R U T K K J 5 ",
"*.*.*.*.&.*.*.&.` *.` *.` _ ` &.*.&.*.*.&.&.&.I.I.&.` &.` &.&.*.&.&.&.*.` I.` I.I.&.&.I.Y.I.U.U.*.U.U.U.U.R.R.E.R.E.W.W.E.W.W.E.",
"` *.*.*.*.*.&.&._ ` ` ` &./ _ _ &.&.&.&.&.` &./ ` ` ` ` ` _ / ` _ _ ` _ ` _ ` _ &.` ` &.I.I.` Y.*.*.*.*.*.=.=.=.=.*.-.*.*.U.R.R.",
"_ *.*.*.*.*.*.&.` _ _ ` / _ ` ^ ^ ` ` / ` / / I./ ` / / _ _ ` / _ _ _ _ ` _ _ / / / / ` ` ` ` ` &.&.&.%.%.#.=.%.&.*.*.=.=.=.*.*.",
"*.*.*.*.*.*.*.*.*.` ` ` / _ I./ ^ ` &.` ` / / / ` ` / ` ` ` &.` _ _ / _ ` / ` _ / / ` ` ` ` ` I._ %.#./ / %./ / _ _ %.%.%.&.&.&.",
"*.*.*.*.*.*.&.*.*.I.I.` ` ` *./ / &.&./ I.&.&.#.&.` / &._ / ` / _ _ _ / _ _ ` / ` / / / ` / ` / / _ / / ! ! ! ! ! / %.! %.%.%.%.",
"&.I.I.I.I.I.I.&.*.&.I.#.&.` ` / &.&.&.#.&.&.&./ &.&./ _ _ ` _ _ _ _ ^ _ ` / / / ` / #./ / _ / / ! _ / / / ! ! ! ! ! %.@./ / %./ ",
"I.&.I.I.I.&.I.&.&.*.I.#./ I./ I.I.&.&.&./ / / &.#.` ` _ _ _ ` _ / _ _ _ ` / / / / / #./ ^ / / / ! / ! ! ! ! / ! #./ ! ! ! ! %.! ",
"I.&.&.I.&.I.I.I.&.&.I.&./ &./ I.*.&.&.&.&.` ` &./ ` ` _ ` / ` ` ` _ / _ / #./ / / / / / / ^ / ^ ! ! ! ! Q ! ! ! ! ! ! ! ! ! ! ! ",
"` &.&.I.&.&.I.I.&.=.&.&.I.&.` I.&.I.I.&.&.&.` ` _ / _ / _ ` ` ` _ _ _ ` ` ` / &.I.` ` / / _ ^ ^ _ ! ! ! ! ! ! / ! ! ! ! ! ! ! @.",
"` I.#.` *.&.#.&.I./ I./ &.#.I.I.Y.*.&.*.` *.` ` ` / _ / ` ` ` ` _ ` ` ` ` ` ` / / / ` / ` / / ^ ^ _ Q Q ! ! Q ! ! ! ! ! ! ! ! / ",
"/ #./ &.#.#.#.#.#.I.` I.&.I.Y./ &.I.&.I.` &.` _ ` ` ` ` _ ` _ ` ` ` ` ` ` _ _ _ I./ / #.` / / / _ ^ _ ! / ! ! ! ! / ! / ! ! ! / ",
"~ ~ E E #.W ( ( ( / #.#.#./ / I.&.#.&.` *.` ` _ ` ` ` ` _ _ _ _ _ ` ` ` ` ` ` ` / / / / / / / / Q _ _ _ / / _ / ! ! ! ! / ! ! ! ",
"O.)./././.-.-.-.Y.#./ E E E ( / #./ / _ ` ` / ` ` ` / ` _ _ _ _ _ ` ` ` ` ` ` ` ` ` ` ` / / / / _ Q _ _ _ / / ! _ @./ _ ! / ! / ",
"'.&X:X=X&X=X=X:X&X[.].'./.:.} U U Y R E E ! / ! #.%./ ` _ ^ _ _ ` ` #.#.#.` #./ ` / / ` ` / #./ _ _ ^ _ / / / / / / / / #./ #./ ",
"&X:X*X*X*X&X=X*X].Z.).Z.:.>.{ } @.=.} Y W E R R R R R ~ E E ^ _ / / / ( _ / / / / / #./ / / / / ^ ^ ^ Q ^ / ^ ^ ^ ^ / ( ! ! W / ",
":X&X:X=X*X].].&XZ.:.O.>.I Y ~ !.(.(.(.-.^.(._.^.^.!.T.=._ E U U ) ) E E E ( E W W / / ( / ( #.! Q Q Q Q ( ^ ( ^ Q Q ^ Q Q ! ! W ",
"&X*X&X].&X].[.'.:.| | @.R.W.!.;.;.!.-.;./.T.:.(.(.(.^.^.!.-.-.$.@.U L L P P q P P Y Y Y ~ R ~ ~ E E E Q ^ E E W Q E Q E E E E E ",
"].].*X=X].[.Z.Z. .I #.T.Y.-.Y.|  .{ z 9 q ' V ' } | ' { { 0 0 0 z V ] ] x z 9 7 < , z ] z 0 ' L U K L L L L L L L U U U U U ) ) ",
"[.].'.].'.:.m...0 @.T.Y.-.-.-.z 2 - p = . = , 2 1 * O * ; - - o   , w > , j x s 8 p p p 2 x | ~ @.#.=.Y.Y.=.W W #.#.( W ( #.W #.",
"'.'.=XZ.'.O.+.0 } $.$.;.$.;.>.k a w = = ; @ @ a - o = 3 w 2 = , * , p , = 2 2 , - , ; * j j 9 | !.~.^._.(.Q.(.^.^._._.^.^.(._.(.",
"=X].'.C.+.+.' @.-.|  .| | m.X.k 2 * , ; * * 2 , * - - : , w u e d w * - 2 - - - , = @ = = = - 8 I ' | -.-.~.^.Q.^.^.-.W._.`.-.} ",
"[.=XZ.O.:.[ } -.| o.>.] o.X...D p a w , = , > = = @ - > w 6.h e f w m y y e m e m & # $   . * # $ - - P -.!.-.!.Q.Q.^.(.Q.Y { -.",
"Z.:.Z.+.o. .:.o.[ o.o.] D j b b b X.l j p , , m m * * > t d t e e e e y i i y e e t m % . . o @ q -.7 ; | $.!.(.^.^.!.$.{ @.!.`.",
">...C X.x ] >.O.O.j.o.] x j j r x b l d k b n a e > : a u u i y e t > > m y u u y u u t =     . 7 { 7 : N T.!.!.~.-.@.@.-.~.~.`.",
"O.C G C 0 x ] +.X.n.b d j a w a d j j f f k k k b a.k.d.b.v.v.v.x.s.8.1.v A v A H 1.H S e #   . @ , ; = 8 I } } $.@.-.T.W.!.~.R.",
"[ ..V M N z V G X.D b w x D j a j j b F k.l.M.#XfXkX<XN.N.<XP.J.x.x.z.r.e.r.u.u.u.q.5.w.S y $     O * * # < 9 N { } ;.@.@.%.@.} ",
"O.[ q 0 B V V j j x a w w j l a f X.n.n.M.3X0XtX#Xk.k.B.1XfXP.v.0.1.c i i v S w.5.q.q.5.4.A y # .     @ < % # % 9 I I I { { I ' ",
":.7 9 B V ..D d 2 , , , e a b a.a..XtXjXpX1XD.a.i.p.B.,XjXvX6Xu.q.3.1.1.A A 1.1.S A S 4.5.7.H >         O 7 < * & N ' I { I I ' ",
"M 9 M [ V D f.b w , * 1 x D X.M.2XtXiX8X2X8X<XK.v.d.p.,XjXBXlXv.8.1.,.1.r.J.J.J.b.r.q.4.4.6.7.h   +   * O < 7 & 3 8 M M I I I I ",
"q 0 B ] V D D Z w 2 2 j f ] X.F.cXtXtXNXNXhX<XV.e.3.3.s.9XVXhXv.8.v i v 1.b.K.K.v.e.8.9.7.4.4.H $ + o > # O 1 t < < M M M I I I ",
"z B ' M z ..D k 2 , ; p a x D ,XsXiXcXxXvXhXV.p.3.a.v v 1XvXhXv.0.1.1.i y i j p a c v c A 6.5.9.r + o & % $ & - O * < 7 q M M M ",
" .] ' z z V Z r p a , p p 2 D ,XjXjXfXtX.Xa.j e v 2.v a.hXvXhXP.e.8.w.1.v v i e t e u y c 5.q.t.S X + o o * o . O     O < q M q ",
"B ' x z g g g D 2 , ; , j j x 0XcXgX,Xl.j.i.F 2.p.b.<XjXkXkX9XP.x.0.8.8.8.8.8.3.3.1.1.3.5.q.r.r.t.l X + . # o o o O O O O q M M ",
"x z p 8 j Z D D a 2 w p j p X.bXvXcXuX8X<XL.L.<XfXNXBXBXxXkX9XP.v.z.r.q.q.0.0.u.u.u.u.u.x.x.x.z.g.t.r X   o 1 # # & & % 1 8 M M ",
"7 1 g F i.D D k j 2 , ; ; 8 tXVXNXvXbXsXgXkXxXBXBXfXtXiXjXfX<XK.z.q.1.v i i 1.w.q.u.u.x.u.x.u.x.z.z.p.3 . o % & % & 3 % 3 r 9 M ",
"z 8 b D k D j.X.p a ; ;   n.VXVXVXVXNXkXkXkXkXfXV.d.B.B.2X6XV.b.e.1.v A v ,.,.1.8.e.0.u.u.u.u.z.z.z.z.6.% * # & 3 % & 3 & r 9 9 ",
"0 g d w t j.a.k a p = + z VXVXVXVXVXBXvXvXxXxXjXfXgXNXBXjX9XN.b.N.,XL.J.x.x.z.u.r.q.q.8.0.0.0.p.u.z.z.g.l o # & & % % & 3 t 3 M ",
"s x b h m F D l b , - . {.VXNXVXVXBXNXNXjXjXjXxXxXjXjXfXtX2X3XK.3XP.v.s.3.s.3.<.,.v v v v v ,.5.0.g.z.9.1.& . $ 3 & % % % 3 g g ",
"z x h b k w b k r - * ; gXVXNXNXxX9XN.F.F.B.B.B.K.V.3X#X3XV.B.B.s.<.,.,.v ,.v v ,.,.,.,.2.5.5.8.q.9.p.g.S e @ $ 3 & % # $ 3 9 9 ",
"j p g p a j c d e 3 , % 8XNXvXxXgX0X9XgXfX2X2X2XV.V.V.B.B.b.d.s.<.s.s.s.d.d.s.s.3.<.2.3.7.9.0.8.9.9.9.9.< . : % # # # % % > r N ",
"D k a = 2 p ; , 3 , r w n.BXcXvXbXuXgXgXsXfXfXfXfXfX2XfX2X3X3X2XV.3X3XV.b.d.d.3.3.7.7.p.8.8.7.7.7.7.g.b X % & % % # o % % 3 r M ",
"H c w 2 p 2 , = * , r a w .XxXiXiXbXbXiXfXiXuX9X2X2X2X2X2X3X3X3XV.B.d.d.s.q.8.7.8.8.7.q.9.8.8.7.7.p.l   o $ & t # o X o % t M N ",
"c 2 7 j a 8 8 2 > w 3 d : p |.bXqXqXiXiXhXuXuX9X9X1X,XL.F.B.c.x.s.s.k.x.x.s.r.0.0.q.9.9.9.i.6.i.4.2 +   o % 3 # X X o % 1 9 N N ",
"9 8 p w 1 p a k k h a k , - t D.qXiXiXuXiXiXhXiXhXhXgXiXfXiXqX6X,XS.N.c.b.g.0.0.0.9.9.9.7.6.6.6., + .   O # O X O % & 8 M M B B ",
", j Z d h l d f f h b v p > : t l..X8X0X0X0XuXuXiXhXjXjXgXgXqX4XN.z.B.b.g.p.p.p.p.g.i.7.6.4.6.y X   o .   # % # & 3 3 9 M B B B ",
"x D x j p a r a l k b c w a e d c g.F.4X8X4X4X4X4X4X8X4X4X4X4XS.k.a.k.f.g.f.7.y.7.4.4.w.w.9.c # o X o X X * 1 < 1 1 M 9 N B B B ",
"X.l b x g p l l j w a a w a b F v 6.S.9X9X0X6X4X4X1X,X,XG.G.A.A.g.p.p.7.i.6.H w.w.5.y.8.y.S % # # # # @ # % % 1 8 M N N V N B B ",
"o.] D ..C V D k w e b k d d u h h c N.qXhXhXqXhXuXqX9X0X4XL.S.A.x.7.w.4.2.w.5.q.y.t.t.y.H $ o # # # * ; & 1 9 N N N N B B B B B ",
"m.[.m.M.C.l.n.j.j.j.j.i.G b c c c c D.gXuXhXqXqXuXuXuXiXuXuXL.L.N.g.q.q.q.q.t.r.t.t.t.5.c y u Z H Z V g N g N N N N g M N N N N ",
"{.D.C.M.n.-XCX.XM.M.l.7.6.F F Z Z c G.xXbXgXhXqX9X9XqXqXqX0X6XL.K.c.x.g.u.r.r.r.r.r.t.4.S H 4.y.h.h.h.h.h.r.h.f.G G X...C C C C ",
"n.j.j.X.{.nX.Xc.c.k.6.G F F S Z b f.9XbXcXbXhXuX9X0X0X0X0X0X0X6XL.J.c.x.x.u.h.u.r.r.t.4.h h h Z Z y.l.h.h.A.l.l.A.A.A.A.G.G.G.H.",
"M.A.C.M.|.A.h.g.4.c c c c c c 2.c.,XqXzXcXNXbXuX9X0X6X0X0X0XL.L.S.J.J.c.c.c.c.x.g.h.g.G S S H Z u d X.n.l.l.n.C.A.C.D.H.H.A.A.G.",
"}.H.H.|. X X|.C.X.X.f.l.M.|.wXsXzXrXrX8XrXrXtX8X6X6X4X6X6X6X0XL.L.S.S.S.A.J.J.h.r.t.y.y.A S 4.4.H Z G f.G D G +.O.O.m.Z.H.$XA.A.",
"nXaXwXOX.XOXeXsXzXzXnXnXnXnXmXsX7X7XrXwX1XG..X1X7X5X8XL.G.L.4XL.L.L.L.J.S.S.A.r.r.t.y.7.H A 1.H G H G y.6.G G f.f.f.j.:.m.>XmX+X",
"ZXZXCXMXnXyX7X|.D.G.|.OX%X%XOXoX.X.X1XdXaXyX1XOX.X%X$X7XwX8XOX.X.X.XG.G.S.J.h.r.y.4.5.H S S S A H H H y.G G f.X.X.f.f.O.j.:.MXZX",
"ZXZXAXZXAXZXZXmXwX|.F.{. X.XOX7XwXwXrXyXaXzXaXyXwXrX7XwXyXwXyXyXyXzX%X$XwX%XH.G.A.H.H.H. XD.H.D.A.G..X.X.X%XoX%X%XXX}.C.m.}.dX-X",
"MXMXmXmXmXnXaX+X|.D.M.D.D.D.D.H.{.|. XoXOX$X-XeXyXyX;X;XyXyXeX;XzXyXwXwXyXyXrXaXzXwXzXrXsXyXyX8X5XOX.X.XOX%X7XwX;X;X;X;X-X@XXX@X",
"nXnXnXnXnXnXsXpXrX-X@X X{.{.{.H.{.{.{.}.}.}. XXXXXXXXX%X$X+X-X-X%X XoX$XwX;X$X%X%X7X7X$X$X$X$X%X.X|.}.|.}. X}.}.XX+X X|.|..X5X.X",
"zXzXsXsXsXsXaXsXaXaXdXdXeXeXwXwX;X;XwX$X;X-X$X$X%X%XXX%XoX%X+XXX}.}. X%X$X$X%X XoX;X%XXX}.}.XXXX%X$X+X}.{.}.XX%X}.G.G.G.|..XG.G.",
"wXeXeXeXeXeXeXeXeX-X-X-X-X-X$X+X$X+X@X@XoX@X+X+X+X%X$X%XoX$X$X$X%X%X$X%X.X%X%X7X;XyXzX;X$X+XXX+X+XXXXX{.C.XXyXOXG.H.G.G.G.G.G.D.",
"pXaXaXaXpXaXaXaXaXpXpXpXpXpXpXpXeXeXeXeXwX-X$X$X-X;X;X%X$X$X$XwX$XoX X X|. XOX%X%XzXCXCXnXzXzXaXzXyX;X;X$X;X;XdXdX;X;X XG.H.D.A."
};





