/* XPM */
static char *_755672938722[] = {
/* columns rows colors chars-per-pixel */
"64 64 256 2 ",
"   c #080500",
".  c #190502",
"X  c #071403",
"o  c #161211",
"O  c #250702",
"+  c #380A02",
"@  c #291603",
"#  c #381801",
"$  c #2E1717",
"%  c #172611",
"&  c #382608",
"*  c #3A2716",
"=  c #303209",
"-  c #0D122C",
";  c #311827",
":  c #133536",
">  c #292C29",
",  c #3B3229",
"<  c #451C00",
"1  c #4A1C01",
"2  c #481804",
"3  c #571903",
"4  c #4D0904",
"5  c #7E0901",
"6  c #651C01",
"7  c #781505",
"8  c #4C2301",
"9  c #462705",
"0  c #542401",
"q  c #5B2401",
"w  c #5D2A02",
"e  c #562B07",
"r  c #5A3407",
"t  c #492814",
"y  c #572917",
"u  c #583417",
"i  c #49350C",
"p  c #632500",
"a  c #642D03",
"s  c #6A2D01",
"d  c #692806",
"f  c #742902",
"g  c #653106",
"h  c #6B3203",
"j  c #64330A",
"k  c #6A330A",
"l  c #693A0B",
"z  c #753608",
"x  c #6A2815",
"c  c #683814",
"v  c #723815",
"b  c #702F13",
"n  c #4F3626",
"m  c #642924",
"M  c #334F33",
"N  c #324500",
"B  c #784218",
"V  c #734D12",
"C  c #504A32",
"Z  c #70492E",
"A  c #58550C",
"S  c #17364B",
"D  c #293355",
"F  c #4F3856",
"G  c #174655",
"H  c #2E596B",
"J  c #2B4F59",
"K  c #50514B",
"L  c #6D5355",
"P  c #73705A",
"I  c #74716F",
"U  c #506261",
"Y  c #8D0402",
"T  c #840D03",
"R  c #8D0B04",
"E  c #890708",
"W  c #930504",
"Q  c #9B0304",
"!  c #930A03",
"~  c #9C0B03",
"^  c #94050A",
"/  c #9C0409",
"(  c #950B0B",
")  c #9A0A0B",
"_  c #881305",
"`  c #951207",
"'  c #8C0812",
"]  c #990A12",
"[  c #961313",
"{  c #A30303",
"}  c #A20B03",
"|  c #A3030B",
" . c #A90806",
".. c #BD0400",
"X. c #B30604",
"o. c #A80F0F",
"O. c #883005",
"+. c #9B1724",
"@. c #CB0605",
"#. c #D30202",
"$. c #DC0203",
"%. c #D9090B",
"&. c #D50E12",
"*. c #E30302",
"=. c #EB0103",
"-. c #EC0B01",
";. c #E7060A",
":. c #F50201",
">. c #FC0101",
",. c #FD0A02",
"<. c #F4010B",
"1. c #FE030A",
"2. c #FE0B0B",
"3. c #F30C03",
"4. c #F71109",
"5. c #FE0214",
"6. c #FA0715",
"7. c #FD191A",
"8. c #EA0D0E",
"9. c #F51527",
"0. c #FC2627",
"q. c #F53330",
"w. c #E92B27",
"e. c #864919",
"r. c #904811",
"t. c #B35302",
"y. c #946602",
"u. c #AD7807",
"i. c #8B542A",
"p. c #976439",
"a. c #AC6835",
"s. c #D06F0A",
"d. c #E86C04",
"f. c #FB6A01",
"g. c #FC7401",
"h. c #F87014",
"j. c #E86124",
"k. c #D13A4A",
"l. c #FB3444",
"z. c #DF3164",
"x. c #B47A4C",
"c. c #976E69",
"v. c #FB5657",
"b. c #F74E4D",
"n. c #F96458",
"m. c #FB6967",
"M. c #F77576",
"N. c #D4635D",
"B. c #7C8974",
"V. c #B88E13",
"C. c #CE8807",
"Z. c #FC9007",
"A. c #FAAA02",
"S. c #F4B402",
"D. c #FEB300",
"F. c #FDBA01",
"G. c #FCBA08",
"H. c #FEB717",
"J. c #E7B20D",
"K. c #DEAD16",
"L. c #FDC703",
"P. c #EEC30B",
"I. c #948872",
"U. c #AD8B67",
"Y. c #C78857",
"T. c #DA935B",
"R. c #D18853",
"E. c #E39356",
"W. c #D69369",
"Q. c #EE8B6E",
"!. c #D5A178",
"~. c #356B83",
"^. c #5C738E",
"/. c #7159CC",
"(. c #0B72F2",
"). c #FD01BB",
"_. c #E504BB",
"`. c #D500B4",
"'. c #97798D",
"]. c #BB54A0",
"[. c #F77C87",
"{. c #D77E80",
"}. c #AF37CA",
"|. c #FA05C8",
" X c #FB02D5",
".X c #EC0ECE",
"XX c #EB24D0",
"oX c #D828D0",
"OX c #AE56CB",
"+X c #AF6BD8",
"@X c #8F68D2",
"#X c #C947D3",
"$X c #79908B",
"%X c #4F90AD",
"&X c #5BA8B1",
"*X c #65ACBB",
"=X c #2786FB",
"-X c #3A97F8",
";X c #2C8CF3",
":X c #34A5F0",
">X c #3093D3",
",X c #58B6DC",
"<X c #55B9D2",
"1X c #6AB9DC",
"2X c #6AADD2",
"3X c #59BAE7",
"4X c #59B8F9",
"5X c #4AABF1",
"6X c #69BAE7",
"7X c #77B9E9",
"8X c #6EB1F0",
"9X c #5890D9",
"0X c #5AC7D8",
"qX c #68C6DA",
"wX c #71C3D2",
"eX c #5AC5E8",
"rX c #54C9EB",
"tX c #68C5E6",
"yX c #76C6E9",
"uX c #6BC6F6",
"iX c #71CAF7",
"pX c #908F8E",
"aX c #AA9296",
"sX c #ACA39B",
"dX c #98AFAD",
"fX c #AAAEAE",
"gX c #939F9E",
"hX c #FB8F90",
"jX c #F8AA95",
"kX c #CDB1AF",
"lX c #F5B3A9",
"zX c #DB979F",
"xX c #ADC4AB",
"cX c #F7CDB5",
"vX c #CCCFB4",
"bX c #918EE2",
"nX c #8AA4E1",
"mX c #A0CED7",
"MX c #D9D6D7",
"NX c #CBD0CA",
"BX c #FDD7C5",
"VX c #F7CACA",
"CX c #D7ECD7",
"ZX c #F4EED4",
"AX c #F3DDEA",
"SX c #EBECE9",
"DX c #F9FBEA",
"FX c #EAFCFA",
"GX c #F4F4F4",
"HX c #FEFCF4",
"JX c #FEF4FC",
"KX c #F4FEFF",
"LX c #FDFDFE",
"PX c #F9F9F6",
"IX c #F2F0EF",
"UX c #D9F1EC",
/* pixels */
"7 ^ Q R _ E ~ ! T ` Y W ! Y W ` ' | ! 7 Y { W ( W ( ! W ( ) ! W ~ Q ~ Q Q ) ( ' R Y E ( ` R R R ! ! ! R R ( ^ ) / Q W Q ! ) W ! ",
"/ | { ^ E W Q Q Q  .Q Q / ] +.' R X.X.E ' ' E  .W ) ) ( Y Y W ( E Y ( ) Q Q W ( } Q Q Q Q / Q Q ^ ) ! ! ! W ^ W ' R ! ! ^ ( W W ",
"R R ! { | o.) | ` Y ) W R _ Y { 7 { Q T ^ | ^ R W Y W ) o.( R ! ] ( E _ T R  . .W ! ( W W ~ ! W Q { ^ Q W W W W E Y Y ! E ^ ^ ^ ",
"( R { #.:.8.&.%.8.<.5.6.#.@.@.$.&.*.*.@.%.;.@...;.#.#.#.#.#.#.#.{  . .X.X.X. .{ X.X...X.X.X.X.X. .} } ~ ~ ~ ~ ~ { X.X.{ ^ ' ( ) ",
"o.E ) ;.,.,.>.>.,.3.@.l.M.hXlXsXQ.w.=.,.,.>.,.,.:.2.2.:.:.2.<.:.1.2.>.:.,.:.>.1.:.>.:.:.:.:.>.:.>.>.>.1.1.:.=.=.*.;.*.@. .R R Q ",
") E _ @.3.:.:.<.5.v.!.B., $ o K m.7.:.=.>.,.>.,.,.:.:.,.>.:.:.:.$.4.=.=.1.>.1.1.>.>.>.>.>.>.>.,.>.>.>.>.:.:.:.=.>.>.>.*.X.R ! W ",
"{ Q  .%.>.:.7.b.zX; . 9 x x ; FXw.<.>.<.9.N.sXxXaXI L L L L L c.M.M.l.6.6.:.>.-.,.:.:.4.3.:.:.>.>.>.>.>.>.:.:.:.:.>.>.*. .E E ) ",
"_ Y X.%.>.1.b.kXX u w v w j L MX4.>.l.zXL o . 4 9 9 0 0 r r q 1 o K P U.!.n.0.>.>.>.2.7.7.2.>.>.,.>.>.>.>.>.:.:.=.>.1.$. .E ' ] ",
"| R R :.;.1.[.$X9 g j 0 d i I zXkXaXL t 2 j k d a a a j k a a g w r e @ # c.UXIXlXzX[.AXjX%.>.1.>.>.>.>.>.>.>.>.>.>.,.=.! W ( ! ",
") T { ;.,.;.HXxX@ b f k B 8 & pXZ t 2 y c w w z k a a a k a a g k g j c i @ n I kXvXsX- I.q.>.-.>.>.>.>.>.>.>.>.>.>.:.*.R W ( ! ",
"_ Q { ;.:.<.cXIX, * e j q 6 3 . e 0 r j j g a h k a a j p a a k s h a a v B e 8 t # @ # t [.<.>.>.>.>.>.>.>.>.>.>.>.:.=.R W ( W ",
"T X.W ;.*.1.7.[.kXB.  + j B 3 v w l l q 0 k l a a a a d a g a k z p h h p e.i.h x j l v O NXq.>.>.>.>.>.>.>.>.>.>.>.,.=.! ^ ( ! ",
"/ | T 8.>.>.:.6.zXPX. e e 0 k r a w a h j a a k a d j k k k g a k q k v a a B z y p r c X NXl.>.>.>.>.>.>.>.>.>.>.>.:.=.! ! ( ! ",
"] ^ 5 6.:.>.2.n.AXc.# x c z z i v a a v v d w j g k k a a g a a e c a w l B l w i O.9 # M lXl.:.>.>.>.>.>.>.>.>.>.>.,.=.R ! ( W ",
"( W Y <.$.2.b.vXM O v 8 s f s s w a a p p k j a a a a a a a j a k k a a h q 0 g r O.r 3 kXM.=.,.>.>.>.>.>.>.>.>.>.>.,.*.! W ( ! ",
"| T { @.<.6.BXL 2 d j g h A 9 [ j j h h a a a a g k a a g v B B z q d k q g v h a j k x 9 I.w.3.>.>.>.>.>.>.>.>.>.>.:.=.R ^ ( ! ",
"W ! R =.,.>.ZX; w g d s h l w g g a g j j h d a w e c j h r.T.T.p.r.r u h a u f g f r h h % c.z.>.>.=.,.1.>.>.,.>.>.:.=.! ! ( ! ",
"! W T =.>.>.cX; r h B a w j j w g a w w w a z B 0 0 e j z R.W.Y.R.E.Y.Z z h u z r a g r.a.l @ VX>.,.:.>.>.>.>.>.>.>.:.=.! ! ( W ",
"R Q R <.-.1.M.* e V Y.a.k 0 B g z a g B h a e.Y.p.2 u j i.Y.Y.Y.T.E.T.W.R.e.8 a l 0 h R.m.Q.L M ,.1.>.>.>.>.>.>.>.>.,.=.! R ( ! ",
"_ | R 1.-.2.l.C p.W.T.R.Y.B 0 h z x.x.q w x.W.Y.x.+ 1 B T.a.e.g h a.Y.T.R.i.q 9 f l U.Y.Y.E.W.K 2.>.>.>.>.>.>.>.>.>.:.=.! ^ ( W ",
"T | E <.$.>.9.P p.W.R.E.E.T.a.a.W.x.B a a v z s j < e i.e.z q w v p r a.Y.u 1 * 3 p.e.w A i.Q.C 7.=.>.>.>.,.>.>.>.>.:.=.! W ( ! ",
"R | ^ <.-.>.5.U.Z W.R.T.R.W.T.T.Y.e.q w l l a a 8 < O 8 w d l j 8 z Z f r & O.& r # z z e p x K q.=.>.>.>.1.>.>.>.>.,.=.R ! ( ! ",
"^ ] W ;.>.>.5.zXt x.e.r.x.W.x.T.v l a q e j a a # O O i c 0 k g g s & s e $ t.+ 9 c d s a b u K b.-.>.>.>.,.:.>.>.>.3.=.R W ( W ",
"^ ^ W %.>.:.<.hXn n 0 z s e.x.a.h g a e e r w w # t . y 0 l w 0 q f t f < $ s.+ p 3 e a q w n C n.8.>.>.>.,.:.>.>.>.:.=.! ^ ( ! ",
"( ) Y &.>.>.:.b.fX@ j 3 O.w j j V q x i < b 3 < 1 O.O 3 d m w i y y f 9   s.f @ q 9 d 3 i e m C m.<.:.:.>.:.-.>.>.>.:.=.! ! ( ! ",
"( Y o.<.>.,.>.0.SXO B h a j r j 6 s s 3 y e t o s.t.O C 1 q d q e 2 8 @ h d.+ ; 9 8 1 t . # . P m.=.>.,.:.1.>.>.>.>.:.=.! ! ( W ",
"Q o.! #.>.=.2.8.vX. 8 0 0 B k a u u 0 6 c & O a.f.s.. . @ @ . $ $ O @ + s.s.. X .   -   O o gXAXq.:.,.>.=.1.>.>.>.>.,.=.! R ( ! ",
"5 ~ Q <.1.%.m.BXn # r u e 1 a h f g B 8 # . t.d.h.Z.d.g.d.d.g.h.d.f.f.f.f.f.h.f.f.g.a & d O ; ].-.,.>.=.>.>.>.>.>.>.:.=.! ^ ( W ",
"[ 5 o.<.9.cXI o + t + + e 8 l h C w r & . r.d.g.f.f.f.f.g.g.g.d.g.h.h.g.f.s.Z.g.Z.V.O # # C X c.q.1.>.*.2.>.3.>.>.>.:.=.! W ( ! ",
"Q [ W %.n.vX> - . . 9 c u 8 q q q O.7 d a.6 6 < 9 $ < # V.Z.A.Z.Z.y.= < @ n 4 2 V.V t d 3 y +   jX;.1.3.>.>.-.>.>.>.,.=.R ! ( ! ",
"[ W W 3.<.Q.lXJXP @ t 1 1 0 w g l y b r.t.s.s.u.s.u.C.C.C.G.L.A.G.C.V.u.C.C.u.C.s.K.+ 3 3 6 j X kXv.<.,.>.>.:.>.>.>.3.=.R W ( W ",
"R X.{ @.>.1.w.PX> . e w a 2 w a f r r O.Z.Z.L.S.L.P.D.G.L.L.J.G.P.D.H.L.D.K.L.D.H.S.O N = < u $ $XVX*.>.,.=.1.1.>.>.:.=.! ^ ( ! ",
") Y Q ;.3.>.q.FXI 4 = X 3 4 t r h j m s Z.D.F.S.H.D.D.F.S.D.G.A.S.L.G.A.L.D.H.H.S.K.@ y 2 3 9 X fXhX6.,.*.*.>.,.>.>.1.;.5 Y Q ~ ",
"W T Q *.:.>.9.lXB.O   + 2 = = 7 r p b . V G.A.F.S.S.F.J.C.u.C.V.C.G.G.S.G.D.S.S.u.+ u 9 e + t ; BXw.:.>.2.5.>.>.-.>.>.1.) ` R W ",
"Q T ) ;.>.>.<.q.MX% F : y & q p 2 O.a   % V.J.F.L.D.D.F.G.S.S.L.D.A.L.L.G.L.K.j . 9 1 1 i @ O NXhXb.l.-.1.;.$.3.,.,.>.>.Q | ( R ",
"Q T W <.>.,.>.>.M.K dXI 4 @ p w 3 r 9 @ = & y.K.S.D.A.D.D.A.D.S.H.G.J.S.L.y.+ # o n k 1 &   M JXPXDXDXZXhX9.>.,.=.>.3.3.Y X.| E ",
"~ R ! <.:.-.>.>.;.Q.cXzXK O * 8 b 8 & . y 2 O @ 8 u.E.P.S.S.S.L.J.V.V.u.w 2 8 t   1 p e *   NXHXKXLXGXJXSXDXcXb.0.1.:.-.`  .{ _ ",
") Q Q 8.:.=.,.>.<.7.8.&.CXc.  n t q 8 . y z u - : X X X . O o $ i & F U i 9 & # @ < p 2   $XLXDXLXJXLXKXKXFXLXKXlXv.5.=.} ! E ( ",
"' ) W $.>.:.,.:.,.=.1.1.v.ZXI.  * e 8 * . + L J yX2X2X2X%X~.H ~.S J M % - K K $   n O $ pXUXLXPXDXFXKXAXJXKXFXLXLXBXm.<.X.Y T o.",
"' } W $.>.>.>.=.>.,.=.,.,.6.hXdXn + @ @   sXfX, 1XqXiX3X5X4XiXqXuX;X8X2XU gXaX  o o I CXLXLXGXLXJXKXKXLXHXDXPXLXGXFXVXw.@.Q _ { ",
"R / R =.>.>.>.>.:.1.1.>.>.:.4.0.VXfXpXpXI.sXLXD tX6XuX4X5X5X6XqX3X>XiXnXG gXB.U fXSXKXPXJXLXKXKXLXLXGXGXLXLXLXLXJXFXLXw.{ _ o.} ",
"( / R ;.1.>.>.>.>.>.>.>.>.:.>.2.4.9.w.8.q.b.DXC 3X,XqXeX,X,XtXtX3X5XrX6XS MXLXLXLXIXGXLXLXPXLXKXPXLXLXLXGXLXGXLXLXKXHXb.+.! Q ` ",
"R / R =.>.>.>.>.>.>.:.>.>.:.>.>.,.:.>.1.<.VXgXG =X=X-X:X-X-X-X-X;X:X:X>X- KXPXPXDXLX> gXKXGXsX$ LXPXSX> fXPXLXIXKXLXKXb.[ ~ Q ` ",
"R / R =.,.>.>.:.>.:.:.=.=.,.>.>.1.>.4.5.N.MXD >X=X=X;X=X=X=X-X=X-X(.=X>X- K MXHXHXLXI MXKXLXNXpXLXLXIXI SXLXLXLXLXLXUX0.^ o.| _ ",
"R | R ;.>.>.>.>.:.:.*.*.*.=.>.>.:.,.>.8.CX; 2X6X4X-X-X=X=X=X=X;X=X-X-X5X2X&XS U MXLXLXLXLXKXLXIXPXGXLXLXGXLXIXLXJXLXCX4.| ) ^ W ",
"! Q R =.>.>.>.>.:.:.=.*.*.=.>.>.,.3.:.cXD &X0X0XtXuX4X5X=X;X-X5X5XuX6X3XuXtX7X%XG dXJXJXLXKXLXLXLXLXLXLXGXLXLXPXJXLXBX,.] W [ W ",
"R / R =.>.>.>.>.>.1.>.:.:.>.>.>.=.5.[.I ^.3XyX0XwXwXqXtX,X,XtXtXtXtXqXyX,XtX,X6X*XJ MXJXHXFXHXJXSXLXPXLXLXLXJXLXHXHXM.1.Y | ] ! ",
"( / R ;.,.>.>.:.>.>.>.>.>.>.>.>.,.w.I.H 3X8XuXqX8X6XtXtXtXuXiX6X6XtXqX1XyX2XyXqXyX~.$XJXDXPXKXLXLXLXPXLXLXLXLXLXHXVX9.-.[ X.Q R ",
"R / R =.,.>.>.>.:.<.:.>.,.-.,.>.-.lX: 2X1XqXtXtXyX6XtXtXtX6X1X2X+X+X#XXX.XOXrXtXqX0XF FXDXDXPXJXJXLXLXLXLXIXlXhX7.,.>.>.o.Q ^ W ",
"E | ! ;.>.>.>.>.>.2.<.:.>.=.>.:.m.VXJ 3XeX2XyX8X7XbX+X#XoX|. X|.)..X|.|..XOX6X1X7XrXG NXhXq.hXhXlXcXBXjXv.0.7.1.4.:.>.<.} W ( ^ ",
"R / R =.>.>.>.:.>.>.8.:.>.,.=.q.AX: 9X3XeX8X@XoX X X.X|. X.X`.`._.XXXXoXOX9XrXqX7X6X%XU hX=.2.;.<.:.3.<.3.:.:.:.:.:.>.>.~ W W ( ",
"( / R =.,.>.>.>.>.>.3.>.>.2.6.Q.aXH nX8X3XuX/.|.|.).)._.}.}././.9X3X3XrX8X8X,X6XeX6XmX: BX0.:.=.2.1.>.>.1.1.>.,.>.>.>.1.} W W ( ",
"R / R =.1.>.>.1.,.:.:.>.>.>.;.jXU 0X,X3X6X3XbX.XOX+XbXnXiXuX5X<X,X6XnXtXrX4X3XiXrXnXyXH xXm.<.2.>.:.:.1.>.>.:.8.>.>.>.1.~ ( ! ! ",
"! / R ;.,.>.>.:.,.>.:.>.:.>.1.lXP *XtX3XiX,XrX4X4XtX6X,XqXtXyXtX8X7XbXbX+X#X/.6X0X7X,X&XU jX6.1.,.:.:.,.>.,.>.:.>.>.>.:.~ ) ( ^ ",
"R / R =.>.>.>.>.:.>.>.>.-.,.5.jXU 2X,XrXtXmX3X4XyXtX7XnXbX+X#XoX).).).)..X|.OXuXqX6XuXqXJ BX0.<.=.,.,.>.:.=.>.>.>.>.>.>.~ Q ) ) ",
"E | R =.>.>.>.>.=.,.>.,.*.,.1.m.sX~.7XuX3X6XiX@XXX.X|.).|.|. X|. X.X X.X.X X}.6XqXtX6XeXH gXn.3.>.>.1.=.:.>.>.1.>.>.1.1.~ W ) Q ",
"' T ~ $.>.>.>.,.>.>.3.:.>.>.%.v.NXH yXeXrXtX2X9X X|. X|.|.|..X|.#X#X+X+XnX8X8X4X3X8X8X6X<XK hX4.>.>.:.>.>.>.>.>.>.>.>.1.} / ^ Q ",
"| ! } $.>.>.=.=.>.:.,.:.>.>.<.b.dX~.7XuXtXyX6X,XOXOX+XbXnX2XqX1X0X1XqX1X6X1X6X1XgXgX'.pX'.+.q.1.>.>.>.>.>.>.>.>.>.>.>.>.} ) ( ^ ",
"R T ~ #.>.>.,.>.1.>.,.:.>.,.:.q.N.c.'.pX'.c.N.z.k.k.k.k.k.k.k.k.:.:.,.3.:.:.=.:.>.6.>.6.6.:.:.,.>.:.>.>.:.>.>.:.>.>.>.>.~ Q ! R ",
"/ W { #.>.>.>.>.>.:.1.>.>.>.:.2.,.1.5.5.:.,.5.<.>.>.>.>.,.,.:.>.1.>.>.>.,.>.>.>.:.2.>.>.,.2.>.:.>.>.>.>.>.>.>.>.>.>.,.>.{ Q ( R ",
"( E _ ) } ! _ ! Q }  .} X.X. .} ..X.Q } { @.*.=.%.@.&.@.#.%.8.8.<.:.1.>.>.>.1.1.1.,.-.*.:.>.,.*.>.:.>.>.>.>.1.>.1.:.3.<.} { ) ( ",
"] ^ ^ | Q E Y W ! ^ { Q Q { }  .| | | | ) ! _ T { / Q W W R Y Y ~ W W ! W R R E | Y W o.X.X.&.@...@.............#.#.@.$.~ { Q W ",
"R R E Q / ( )  .( ) ^ ( Y E ) ^ Y T T T R Y Q Q Q ! ! ! R ! ! ! T R _ ! R ! ! !  .Q Q ! _ 5 T T R R R R R R R R { Q { ..E / W Y ",
"{ ! ! ^ W T T Q R W ! ) R R ( ^ ] W } Q / ) ] W ) ^ ^ ^ ^ ^ ) ) W W Q ^ ^ Q Q Q 5 ( o.Q / ] Q | Q W / Q Q / Q / E T T | 7 ] ] R "
};
