/* XPM */
static char *_755672924320[] = {
/* columns rows colors chars-per-pixel */
"64 64 198 2 ",
"   c #010100",
".  c #0A0402",
"X  c #050905",
"o  c #0A0A06",
"O  c #050608",
"+  c #0B0608",
"@  c #060909",
"#  c #0B0C0B",
"$  c #120504",
"%  c #130A06",
"&  c #130C0A",
"*  c #180D0C",
"=  c #1A0B06",
"-  c #0D110D",
";  c #13110E",
":  c #19110E",
">  c #0E0D11",
",  c #180D11",
"<  c #170E11",
"1  c #0F1410",
"2  c #151413",
"3  c #1A1514",
"4  c #151812",
"5  c #1B1916",
"6  c #1C1618",
"7  c #1D1C1B",
"8  c #210F0D",
"9  c #23110D",
"0  c #221413",
"q  c #221916",
"w  c #2A1C17",
"e  c #231D1C",
"r  c #2A1C1B",
"t  c #311C1B",
"y  c #1E231D",
"u  c #23211E",
"i  c #29211B",
"p  c #2C281C",
"a  c #33211D",
"s  c #242422",
"d  c #2C2423",
"f  c #2B2926",
"g  c #2C2C2A",
"h  c #2C2628",
"j  c #332524",
"k  c #332A25",
"l  c #332C2A",
"z  c #3A2D2C",
"x  c #3A2826",
"c  c #2F302B",
"v  c #34312E",
"b  c #3D332E",
"n  c #372E31",
"m  c #343432",
"M  c #3B3432",
"N  c #3C3935",
"B  c #3D3B3A",
"V  c #422E2D",
"C  c #41332E",
"Z  c #433332",
"A  c #4A3730",
"S  c #423934",
"D  c #493638",
"F  c #453C3B",
"G  c #4B3E3D",
"H  c #3E413A",
"J  c #44423D",
"K  c #48413C",
"L  c #52443D",
"P  c #433F41",
"I  c #464544",
"U  c #4B4342",
"Y  c #4D4A46",
"T  c #4B4748",
"R  c #4E484A",
"E  c #524543",
"W  c #534A44",
"Q  c #524E4A",
"!  c #5A4D4A",
"~  c #5B4E46",
"^  c #4D5049",
"/  c #56524F",
"(  c #5B524C",
")  c #575350",
"_  c #5C5453",
"`  c #575852",
"'  c #5C5C5B",
"]  c #5E5A57",
"[  c #634C46",
"{  c #61544C",
"}  c #645654",
"|  c #645954",
" . c #675A5C",
".. c #6C5B5B",
"X. c #6F5459",
"o. c #765B5B",
"O. c #5F6058",
"+. c #65625D",
"@. c #6B635D",
"#. c #74655D",
"$. c #775E61",
"%. c #5D6661",
"&. c #6C6563",
"*. c #6B6864",
"=. c #6A6A69",
"-. c #646663",
";. c #736764",
":. c #736C65",
">. c #7B6B65",
",. c #7B6668",
"<. c #736C6A",
"1. c #7A6D6C",
"2. c #7B726D",
"3. c #75746F",
"4. c #757372",
"5. c #7D7572",
"6. c #797979",
"7. c #81665D",
"8. c #836C6C",
"9. c #83716B",
"0. c #8C756F",
"q. c #846E71",
"w. c #867474",
"e. c #8B7472",
"r. c #837C75",
"t. c #8B7C76",
"y. c #837C7A",
"u. c #8B7C7C",
"i. c #907874",
"p. c #937E7D",
"a. c #83827E",
"s. c #8D817C",
"d. c #8D897D",
"f. c #95847D",
"g. c #98847D",
"h. c #8D8381",
"j. c #8D8986",
"k. c #928485",
"l. c #9A8483",
"z. c #938B85",
"x. c #9C8B87",
"c. c #968D8B",
"v. c #9B8C8B",
"b. c #9D928D",
"n. c #959193",
"m. c #9D9392",
"M. c #9B9994",
"N. c #A08F87",
"B. c #A28D8D",
"V. c #A1938D",
"C. c #A58F91",
"Z. c #A29391",
"A. c #A49993",
"S. c #A49C9A",
"D. c #AA9D98",
"F. c #B39C9B",
"G. c #BA969A",
"H. c #A8A09D",
"J. c #A2A39B",
"K. c #B0A29F",
"L. c #ADA4A3",
"P. c #A6A7A2",
"I. c #B3A7A3",
"U. c #B4ACA9",
"Y. c #BCAAAB",
"T. c #B9A8A4",
"R. c #B4B1AF",
"E. c #BAB0AF",
"W. c #B4B2B2",
"Q. c #B9B6B1",
"!. c #BDBBB8",
"~. c #C3ABAA",
"^. c #C2B6B6",
"/. c #C4BBB2",
"(. c #C4BDBB",
"). c #CBBBBC",
"_. c #CAB7B9",
"`. c #D2BFBC",
"'. c #C5C0BD",
"]. c #CCC3C2",
"[. c #CBCAC6",
"{. c #D6CCCA",
"}. c #D3C7C4",
"|. c #D4D0CD",
" X c #DDD4D3",
".X c #DDDAD5",
"XX c #E2DAD8",
"oX c #E7E1DC",
"OX c #ECE4E3",
"+X c #E4E3E1",
"@X c #F1E7E6",
"#X c #F7EDE7",
"$X c #F2F2ED",
"%X c #FBF5F3",
"&X c #F7F8F3",
"*X c #FCF9F5",
"=X c #FEFDFA",
"-X c #F4F3F1",
/* pixels */
"                                        X     X               X                                                                 ",
"                                o .                                                                                             ",
"                                          X                                                                                     ",
"                                > + O X     O       X       X                                                                   ",
"                                                                                                                                ",
"                                  X     # # # O &                                                                               ",
"                                  o   . K ,.i.B.R e     O                                                                       ",
"                                $ w w Z l.T.G.G.c.I +                                                                           ",
"                                X o 4 $ o.p.l.x.[ A.o     .     y # g u   O O   .       o     X   >   O                         ",
"                                  o . % G _.m. .g.3.X     . 7 N g W.n.' M 7   .   .       # .   #         X                     ",
"                                    . . . ;.^.|.I.B   X   $ W :.+X&X*X=X=X4.h .         % t S : .   #       X                   ",
"                                #   o   .   7 - 5       . S /.@.OX&X=X=X-X%X_ e   X     i ..x.| :   X #                         ",
"                                  .   X               X $ L #X( OXM.&X$X[.%XS.x   ;   . Z x.F.9.;.W       X                     ",
"                                  #       -   X O X     q { %X+.O 2 $Xa.- *.OXz O   .   1.8.0.#.b.2.  X                         ",
"                                  X     #         # ;   = ..Q.u & T %X.   u XXz #   X   V.0.8.g.g.|   -       .                 ",
"                                  # X       #   >     . 9 | j.%.u.H.-X^ o / I.j   2     w.'.g./.i.C         O                   ",
"                  . .   = } X.l.8.C.q .   X   O     X   d j B.oX=X&X=XoX( {.S x     O   7 <.` J.H X X   O   >                   ",
"                    X . V Z.C.p.G.p.z         >     X 5 * w K.e !.=X&X*Xr.k S S X         2   $       @ @ X                     ",
"                      . r v.~.q.e.B.) + X X O     o y 4 $ E Z.S 5 Q *.+.; @.k L                 p K l &     #                   ",
"                +       r u.Y.$.q.`.M           . ; 1 . . 1.! Q . - . v M.v q l       #     . q V.I.z.z.v     #                 ",
"                    # . . Z U._.Y.`.q +       X   f X X   ,.u.@.R.!.R.P.u . X d   +         . b N.i.x.s.6.X -                   ",
"                O           e : h q       +     % M X     R ^.n.d m I -.  .   i           & $ t.g.9.>.K z..                     ",
"                O   X   o           2   . . . o x b     & d 5.) , I 6.'   X   % 7 . X       = 1.^.f.Z./.u     O                 ",
"                        @   X           u . o g 8 N   -   , k. .6 n.4.  o     + Y O   X +   . t ..U.L.b   o #                   ",
"                X   X X     -     X     e : k   . 7 i   .   / d % ;.H X X X   . S .   X           1   > >                       ",
"O       O         #       2           + l : $ . . X s       v s N Y X       . k N .               X       O #                   ",
"      # m ' =.*.] ) -.*.I u X           v g     .   u       # 7   o   1 #   $ L N .           .     # #                         ",
"    + O   2 g I } 2.&.R.a.U.r.Y 3 . . & N J o       ; .   +   #           . $ V f               . ;       O   O                 ",
"O       O + O   d k.A.L.y.&.M.'.G   . u s y                           .   : 8 0 +         X     L f.Q X O                       ",
"    O           . 5.c.{.A.P.Q.Q.Z   4 5           O                   . = b Z V .         .   . A s.S         O                 ",
"#         O O   $ z | F U y.M.J 3 $ s X     #     O     O     O O     3 b { j . #   X         = 0.9.d   O X                     ",
"      O         r 0 z e g u     .   :   X     .         @ O   O   X .   . C r * #     X     . k 7.0.:.v O                       ",
"                      O o O O   . 7 . X   # #                       . - : 3 w t X X         = a g.o.i.N.p . +                   ",
"                                  v     -     2                 # X     . q b U 5     X +   % x ~.0.p.A.S                       ",
"                                % k o         X                     o - : 4 6 q m 2         5 K T.D.A.9.7     X                 ",
"                                . ) s         O                     X X         + & 2 o     . 4 t.b.d.K     X                   ",
"                                  K s 3 +                                     X   + 6 3 X                   X                   ",
"                                . q & K <   X                           X       #     & ; o . .         X                       ",
"                                . P . z M e   1                 O                     + : :     . O #       #                   ",
"                                  E . q 3 g 2                                 .   X .   . : 3 + + O 2   O   -                   ",
"          X       U h 6 h e N u q d . 5 ; + v %                                   X       $ . } k.h.].M.1.y.I.q                 ",
"    #           + R y.m.L.OX].3.U.<.3 f     e +                                           . z ].%XS.m. Xy._ d %                 ",
"          O         q k u.m.5..X{.%XU #     O <                                       X     k {.U _  X).Q .       X             ",
"          +     .   . K !.=X<.R } @XN   O                                         X         + 1.P @.W.{.].5./ B           O     ",
"    #         +   % J z.=X=X+.v c.y.o X     -                                     @         . z `.v.%X@X} y.B             .   X ",
"    O     + % 6 p L @.>.H.#X*XoXXXv .         O                                               : C.%X).} 1.P u...6             X ",
"        + 6 q d p a.| { ~ b.b.U.+.X       .                                           O   . + . D ,.P _.X.,.q.,.P               ",
"    O     + , d d.( g.| v.{ z.K . X         &                                     .       u v 3 + 5.k.D q.e.X.q.' O   X   X     ",
"            # 7 t.2.#.b.~ L s.i X X     o 3 6 e             O   3 e & <   - 2 X ; u 7 ; 3 k l k . x y.F j h.5.j I 4     O       ",
"              # b G A.C $ | #.w - - s y B s e 2 6 O   O     4 h h + # 4 3 # . 2 4 N c f   q 4 k . . _ G   f M & #               ",
"                $ % q     r.K   X   X   y 6 l l @             # F 3 m 7 s s ; 3 f y 7 . g u s 4     3 3   .         O           ",
"                        +   .           # 7 e f # 5 s s > #         s 5 7 f s 7 X       .         .     o .       O O           ",
"X               O   O   #     #       # 5 3 # #   4 h 6           # 3 g e 7 # .   . X . X     o     X X     #                   ",
"                          #   v B v m 7 m # +         O       O   .       3 3   X       -   X     X                           O ",
"                  .     #   O o     2 - g 2 4 2 y 2 7 h h s 7 6 7 7 5     7 s 6 7 7   #   #       @     # X   O       O         ",
"                    .     o           .     O 4 + s m s O   X       s ; & 6 e B 7 6           X     O                           ",
"                                  O s m f #             y B B s u 3 7 e 3 +                                                     ",
"                                  O 2 7 2               2 y 7 # 2 f s f I u     O                                               ",
"                                    O                   O O     #         7 N B 6 >       X                                     ",
"                                                                  O .   .     & g 7 #                                           ",
"                                                              O # 7 2         7 s 7 #                                           ",
"                                                O               g 7 y 5     X     O +                                           ",
"                                                                # y X   X X                                                     ",
"                                        O                 O         o                                                           "
};
