/* XPM */
static char * iron_plate_64[] = {
"64 64 5 1",
". c #4B545D",
"+ c #6B757E",
"* c #2F353B",
"o c #8A949E",
"# c #1E2328",
"################################################################",
"#**************************************************************#",
"#**************************************************************#",
"#**###****************************************************###**#",
"#**#*#****************************************************#*#**#",
"#**###****************************************************###**#",
"#*****......+........+........+........+........+........+*****#",
"#*****.....+........+........+........+........+........+.*****#",
"#*****....+........+........+........+........+........+..*****#",
"#*****...+........+........+........+........+........+...*****#",
"#*****..+........+........+........+......o.+........+....*****#",
"#*****.+........+........+o.......+........+........+.....*****#",
"#*****+...o....+........+........+........+........+......*****#",
"#*****........+........+........+........+........+.......*****#",
"#*****.......+........+........+........+........+........*****#",
"#*****......+........+........+........+........+........+*****#",
"#*****.....+........+........+........+........+........+.*****#",
"#*****....+........+........+..o.....+........+........+..*****#",
"#*****...+.....o..+........+........+........+........+...*****#",
"#*****..+........+........+........+........+........+....*****#",
"#*****.+........+........+........+........+........+.....*****#",
"#*****+........+........+........+........+........+......*****#",
"#*****........+........+........+........+........+.o.....*****#",
"#*****.......+........+........+....o...+........+........*****#",
"#*****......+.......o+........+........+........+........+*****#",
"#*****.....+........+........+........+........+........+.*****#",
"#*****....+........+........+........+........+........+..*****#",
"#*****...+........+........+........+........+........+...*****#",
"#*****..+........+........+........+........+........+...o*****#",
"#*****.+........+........+........+......o.+........+.....*****#",
"#*****+........+........+o.......+........+........+......*****#",
"#*****...o....+........+........+........+........+.......*****#",
"#*****.......+........+........+........+........+........*****#",
"#*****......+........+........+........+........+........+*****#",
"#*****.....+........+........+........+........+........+.*****#",
"#*****....+........+........+........+........+........+..*****#",
"#*****...+........+........+..o.....+........+........+...*****#",
"#*****..+.....o..+........+........+........+........+....*****#",
"#*****.+........+........+........+........+........+.....*****#",
"#*****+........+........+........+........+........+......*****#",
"#*****........+........+........+........+........+.......*****#",
"#*****.......+........+........+........+........+.o......*****#",
"#*****......+........+........+....o...+........+........+*****#",
"#*****.....+.......o+........+........+........+........+.*****#",
"#*****....+........+........+........+........+........+..*****#",
"#*****...+........+........+........+........+........+...*****#",
"#*****..+........+........+........+........+........+....*****#",
"#*****.+........+........+........+........+........+...o.*****#",
"#*****+........+........+........+......o.+........+......*****#",
"#*****........+........+o.......+........+........+.......*****#",
"#*****..o....+........+........+........+........+........*****#",
"#*****......+........+........+........+........+........+*****#",
"#*****.....+........+........+........+........+........+.*****#",
"#*****....+........+........+........+........+........+..*****#",
"#*****...+........+........+........+........+........+...*****#",
"#*****..+........+........+..o.....+........+........+....*****#",
"#*****.+.....o..+........+........+........+........+.....*****#",
"#*****+........+........+........+........+........+......*****#",
"#**###****************************************************###**#",
"#**#*#****************************************************#*#**#",
"#**###****************************************************###**#",
"#**************************************************************#",
"#**************************************************************#",
"################################################################"
};
