/* XPM */
static char *_755670230722[] = {
/* columns rows colors chars-per-pixel */
"64 64 255 2 ",
"   c #0B081B",
".  c #18151D",
"X  c #11101B",
"o  c #25111C",
"O  c #10211E",
"+  c #170C26",
"@  c #0D1325",
"#  c #1C1C2B",
"$  c #181528",
"%  c #1A1736",
"&  c #120E32",
"*  c #240629",
"=  c #25172C",
"-  c #251835",
";  c #351930",
":  c #18263A",
">  c #13232F",
",  c #222129",
"<  c #28273A",
"1  c #362F38",
"2  c #3F462E",
"3  c #474B3D",
"4  c #161A46",
"5  c #161952",
"6  c #261B47",
"7  c #321A53",
"8  c #1A2845",
"9  c #1D374B",
"0  c #1B2955",
"q  c #1B3454",
"w  c #0D2658",
"e  c #272945",
"r  c #372C47",
"t  c #283648",
"y  c #383947",
"u  c #262855",
"i  c #372B58",
"p  c #2A3659",
"a  c #343758",
"s  c #182F68",
"d  c #372F64",
"f  c #293769",
"g  c #373867",
"h  c #283974",
"j  c #373B76",
"k  c #2A2C64",
"l  c #463849",
"z  c #473B58",
"x  c #5A3855",
"c  c #4A2A4F",
"v  c #643259",
"b  c #4A376E",
"n  c #743B67",
"m  c #733969",
"M  c #531E48",
"N  c #394555",
"B  c #33454F",
"V  c #2B496C",
"C  c #374667",
"Z  c #2B447C",
"A  c #384676",
"S  c #3A5475",
"D  c #49474A",
"F  c #494758",
"G  c #564659",
"H  c #585858",
"J  c #4E5153",
"K  c #5B6358",
"L  c #65695A",
"P  c #464766",
"I  c #594B64",
"U  c #4D5466",
"Y  c #585968",
"T  c #565875",
"R  c #4D4E78",
"E  c #77466C",
"W  c #69536D",
"Q  c #5B6468",
"!  c #536177",
"~  c #66686A",
"^  c #666A79",
"/  c #766978",
"(  c #697378",
")  c #78767A",
"_  c #73746C",
"`  c #635455",
"'  c #492D3B",
"]  c #823D75",
"[  c #874F7B",
"{  c #836C7C",
"}  c #788277",
"|  c #838379",
" . c #2C4D8B",
".. c #2B4984",
"X. c #364B88",
"o. c #365489",
"O. c #2B4D95",
"+. c #354E95",
"@. c #2D5494",
"#. c #3B5D9C",
"$. c #375697",
"%. c #2E5389",
"&. c #3E619C",
"*. c #3B5CA2",
"=. c #365BA3",
"-. c #375AA9",
";. c #3D64AB",
":. c #3C64A7",
">. c #3E6BB2",
",. c #1E4B82",
"<. c #444C89",
"1. c #46548A",
"2. c #445C9C",
"3. c #465897",
"4. c #54528E",
"5. c #685687",
"6. c #46629D",
"7. c #576B92",
"8. c #6A6887",
"9. c #746C88",
"0. c #787689",
"q. c #7C7A92",
"w. c #7A7795",
"e. c #6F7394",
"r. c #445BA5",
"t. c #505AA2",
"y. c #4362A2",
"u. c #4364AA",
"i. c #4967AA",
"p. c #5369A6",
"a. c #5676AB",
"s. c #486BB7",
"d. c #546BB7",
"f. c #4B73BA",
"g. c #5576B9",
"h. c #4573AA",
"j. c #6477AE",
"k. c #486DC5",
"l. c #4C73C3",
"z. c #4B74C7",
"x. c #5479C9",
"c. c #5374D3",
"v. c #3E65CC",
"b. c #AE3993",
"n. c #97588A",
"m. c #974885",
"M. c #A4478D",
"N. c #AB5397",
"B. c #B15094",
"V. c #866883",
"C. c #837A88",
"Z. c #847A99",
"A. c #926F8F",
"S. c #B34DA6",
"D. c #AC699E",
"F. c #C847A7",
"G. c #D451B0",
"H. c #CC70B3",
"J. c #E373C4",
"K. c #CA389A",
"L. c #7D8588",
"P. c #7C8796",
"I. c #748AB1",
"U. c #5E89BE",
"Y. c #5A83C9",
"T. c #6F8DCE",
"R. c #88888A",
"E. c #878798",
"W. c #958999",
"Q. c #979899",
"!. c #8E9692",
"~. c #A28B96",
"^. c #A5A998",
"/. c #8987A4",
"(. c #958CA6",
"). c #9798A7",
"_. c #9A97B5",
"`. c #8B94B8",
"'. c #A899A7",
"]. c #A59CB4",
"[. c #B094AE",
"{. c #9AA7AA",
"}. c #95A6B5",
"|. c #A6A7A8",
" X c #AAB2A9",
".X c #B4B7AB",
"XX c #A9A9B6",
"oX c #B6AAB9",
"OX c #ABB5B6",
"+X c #B4BBBD",
"@X c #B7B8B7",
"#X c #B0A4AE",
"$X c #9BA396",
"%X c #C5B5BD",
"&X c #BCC4B0",
"*X c #C3C8BA",
"=X c #CED6B8",
"-X c #879CC7",
";X c #9B9AC2",
":X c #91A6C9",
">X c #B7B7C4",
",X c #B1B1C6",
"<X c #E58AD1",
"1X c #C7B9C6",
"2X c #CDB0D5",
"3X c #DBA1D1",
"4X c #BBC2C6",
"5X c #BFC8D1",
"6X c #C9CBC4",
"7X c #C7C7C8",
"8X c #D0CCCC",
"9X c #CCD4C9",
"0X c #D2D3CE",
"qX c #D4D6C6",
"wX c #CACAD7",
"eX c #D3CBD8",
"rX c #D5D5D2",
"tX c #DADBD6",
"yX c #DDDDDB",
"uX c #D8D6D7",
"iX c #CCD7D5",
"pX c #E6DEDD",
"aX c #DEE3CC",
"sX c #DDE2D9",
"dX c #E3E3DD",
"fX c #E4E7DB",
"gX c #E7E8CD",
"hX c #DADAE4",
"jX c #D3C9E8",
"kX c #E4DBE6",
"lX c #EEDAF7",
"zX c #DBE4E3",
"xX c #E5E4E4",
"cX c #EAE5E4",
"vX c #EBECE5",
"bX c #ECEDEB",
"nX c #E6E7E9",
"mX c #F1EBED",
"MX c #EDF2EC",
"NX c #ECF5E8",
"BX c #F2F3EE",
"VX c #F7F8EA",
"CX c #EAEAF3",
"ZX c #F3ECF4",
"AX c #F9EAF8",
"SX c #EDF5F3",
"DX c #EDFAF8",
"FX c #F4F4F4",
"GX c #FAF5F4",
"HX c #F4FAF5",
"JX c #FAFBF5",
"KX c #F5F6F9",
"LX c #FBF5FB",
"PX c #F5FBFC",
"IX c #FCFCFB",
/* pixels */
"IXIXIXIXIXKXIXIXIXIXIXKXIXIXIXIXKXIXIXJXJXIXIXKXHXPXIXIXIXPXHXJXJXIXIXHXIXIXIXPXIXIXIXIXIXIXJXJXIXIXIXIXIXIXIXIXIXIXIXIXIXIXIXIX",
"IXIXIXIXIXIXIXIXJXIXIXIXIXIXIXJXIXIXFXHXJXHXGXIXIXIXFXBXJXIXIXIXIXJXJXIXJXHXJXJXIXIXKXZXLXIXIXIXIXIXIXIXIXIXIXGXIXIXIXIXKXIXJXIX",
"IXIXIXIXIXIXKXIXIXIXIXIXIXIXIXKXZXIXIXIXHXIXIXKXHXIXIXIXIXFXHXBXIXIXJXIXJXJXJXJXJXJXIXIXIXMXmXIXKXIXIXIXIXIXIXIXIXIXKXIXIXIXIXIX",
"IXIXIXKXIXIXIXIXLXIXIXIXIXIXIXIXIXFXFXIXIXIXIXIXKXPXIXIXPXPXKXIXCXPXIXIXIXIXIXJXBXJXJXBXIXIXIXIXIXIXIXIXKXIXIXIXIXIXIXIXIXIXLXIX",
"IXIXIXIXIXIXIXIXIXIXLXIXIXIXIXIXFXIXIXIXIXPXKXDXhX4X!.8.! Q U N U U Q E.>XkXLXKXIXIXIXIXIXGXGXIXIXIXIXIXKXIXIXIXIXIXIXIXIXIXIXKX",
"KXIXKXIXIXIXIXJXIXIXIXIXIXLXIXIXIXIXLXKXPXnX X} 8.^ ^ ( L.{.{.}.) ^ T Y F N 9.XXKXZXBXFXIXHXIXIXIXIXIXIXIXIXIXIXIXLXIXIXIXIXIXIX",
"IXIXIXIXIXIXIXIXIXJXIXIXKXIXIXIXFXSXDXCX|.Q Q L.{.4XiXzXzXCXCXnXKXnXzXhXwX).Y t F XXIXIXFXJXIXIXJXIXKXIXIXIXIXJXIXJXIXIXIXIXIXIX",
"IXIXJXIXIXLXIXIXIXIXIXIXIXIXIXJXFXPX4XQ J ).iXsXfXNXvXvXNXMXNXvXdXSXDXnXCXDXnX7Xq.I ^ 7XIXIXFXIXIXIXIXIXIXIXLXIXIXIXIXIXKXIXIXJX",
"IXIXIXKXIXIXIXIXIXJXFXIXIXJXIXJXDX}.U _ =XgXdXCXcXGXcXmXFXbXZXxXFXFXMXBXFXJXVXVXdXxXR.F E.LXLXJXIXIXIXIXIXIXIXIXIXIXIXIXIXIXIXJX",
"IXIXIXIXIXIXIXKXFXIXIXGXIXIXJXIX4XJ !.=XgXVXmXcXcXFXpXbXxXcXbXbXxXFXJXIXVXVXJXVXNXaXvXOXy V.IXBXIXIXJXLXIXIXIXIXIXIXKXIXIXIXLXIX",
"IXIXIXIXIXKXIXIXFXIXIXHXIXIXFXFX^ _ aXVXfXkXkXcXyXcXpXcXcXcXBXBXvXnXvXvXBXJXVXbXVX=X*XsXE.l bXJXIXIXIXIXKXIXIXKXKXIXIXIXIXIXIXIX",
"JXLXIXIXIXIXIXIXKXIXGXIXIXGXGXhXJ &X&X=XAXCXkXqXxXuXxXrXyX7XtX8XxXdXbXdXdXfXbXGXgXNX=X=XuXG '.LXIXIXIXIXIXIXIXIXIXIXIXIXIXIXIXIX",
"IXIXIXIXIXKXIXIXIXIXBXIXIXKXIX>XU &X^.aXCXkXkX*X7X7X6X8X8X8X0X6X6X%XrX0XyX7X*X*XaX*XaX X>XG Z.LXKXIXIXIXIXIXIXJXIXIXGXIXIXIXIXIX",
"IXIXIXIXIXIXIXIXIXIXFXIXFXIXIXE.~ &X&X^./ 0.{ _ { _ H L H ^.@XqX+X_ H 2 H H L ) _ K ) .X1XI ].LXIXIXIXIXKXIXIXIXIXIXIXIXKXIXIXIX",
"IXIXIXIXIXIXIXIXLXIXJXJXJXIX7X^ } 9XfX0XyXeX'.{ H ~ R.~.R.*XqX9X9XQ.^.R.) H ~ $X*XgX&X&XoXx '.ZXJXIXIXKXIXIXIXIXIXIXIXIXIXIXJXIX",
"IXIXIXKXIXIXIXIXIXFXJXJXIXnXq.G qXtXLXkXpX#X'.C.D ` #X$X X6XvXqXrX|.@XQ.| D L #X^.*XaXqX%X~ { IXIXIXIXIXIXIXIXKXIXIXIXIXIXIXLXIX",
"IXFXFXIXIXIXFXIXPXSXNXDXDX,XJ {.cXpXcXdXrXrXsXsXyXsXyXsXdXxXvXvXdXdXvXyXnXNXsXNXxXJXaXaX=X!.x _.9X4X$XSXbXIXIXIXIXIXIXIXIXIXIXIX",
"HXIXIXIXSXIXIXIXNXnX( ( {.} Q jX6X8XsXiXsXnX9XiXtXtXyXsXsXsXdXxXdXdXxXcXNXvXsXfXNX*XaXqX*X1X< e O ~ K OXHXVXnXIXIXIXIXIXIXIXGXIX",
"KXIXIXPXIXIXGXFXVXPX4X} *XL Q jX{.&X4X5X7X6XuXrXrXrXtXtXuXiXrXuXtX8X6XuXtXsXfXsX&X$X9X*X%XoX- $ U 4XQ.3 _ fXIXCXIXIXIXIXIXKXIXIX",
"KXPXHXIXIXLXKXIXMX!.2 L  XL.Q {.OXOXOX4X+X7XuX%X0X0X8X0X8X8X0XrX7XuXuXtX X$X*X*X!. X&X1XXX/ + $ P.)..X&X&XD 6XIXKXIXIXKXGXIXIXIX",
"KXPXIXIXIXFXIXFX) J =X=X!.( ) Y #XE.|.@X+XOX X7XQ.!.W.E.!.Q.Q.$X).Q.R.Q. XOX.X} $XOX|.OXP.< < T 8.!.|..X=X2 Q.PXIXIXKXFXKXIXIXIX",
"PXIXIXKXIXIXGXQ.L 7X$X&X&X*X.XC.= W.I D Q.OXOXXX@X@X.X.X@XOX+XOX@X+X@X@X+X&XOX$XOX|.W.Y < < N P T P.4X6X*XD iXKXIXIXIXIXIXIXIXIX",
"IXPXIXIXIXIXZX~  X)./.).|.^.7X>X].9.l 0.C./ { J |. X+X4X+X+X&XOX+XOXOX|.{.{.).{.) B D ( R.0.( e.XX,X+X+X).7XB +XbXGXIXIXIXIXIXIX",
"IXSXIXIXFXGXIX!.z ).)./.;X`.q.|.OX,X1XC.%X'.' ~.~ R.Q.|.|.{.{.{.{.{.OXQ.L.Q N ( B OX9X.X&X&XOXXX>XXX).E.E.R.+XD uXbXIXIXIXIXIXIX",
"IXKXPXHXIXGXKXD ]././._.(./.w.Z.E.(.).,X>X1X#XQ.=X{ L 3 ) |.).{.{.E.~ K 2 &X!.K =X&X|._._._.]._._./.P.P./.E.!.'.Y IXIXIXIXJXFXIX",
"FXIXIXHXIXGXZXL.(./.P.)./.w.Z.9.e.q.E.Z.(.).oX>XoX6X^.J W.r < 1 t y ( Q {.4XOXiX+XXX(.`.E.9.9.Z.Z./.Z.w.^ ^ #XoX1 xXKXMXIXIXIXHX",
"IXNXSXIXFXLXIX5XF T /./.w.Z.w.Z.0.w.w.P.).`.(.P.q.E.#X%X,XF G P t y >X{.4X{./.).;X;X(.w.q.C.w.e.9.Z.9.A.9.C.W.l z @XIXIXJXFXIXGX",
"FXHXIXIXZXIX4XU N U U 8.w.w.Z.8.9.9.e.8.9.e.e.0.w.C.( R.).XXl G l Y >X{.).)./.E./.Z.w.8.^ 0.5.b d d b 9.9.9.W l ; 8XLXIXMXIXIXLX",
"BXIXSXPXIX1Xy : P.S T R ! Z.0.P.9.9.9.e.e.0.9.9.e.8.L.9.0.(.l I 1 ) W.XXE.E.Z.Z.w.8.R 8.( R j b j j j b 8.e.b e Y D LXCXIXIXGXIX",
"IXMXMXIX1Xa 8 /.S A p g p u 4.8.q.8.P P 4.8.e.e.e.e.R ! P.Z.r D , / q.I.8.8.Z.5.U e 8 a g 0 k 3.j j b 5 u g 0 R ,XT G IXIXFXIXIX",
"FXHXIXeXF % 5.I.a.o.A k u a p f w q f A A C R R g g q A w A T y . Q t > f u 0 f f V h h h o.r.d.4.0 4 5 g A o.-X:X5XP C.AXIXZXHX",
"FXIXnX0.- T :X`.h.r.h 0 4 5 p 0 Z Z ..X.X.X.j h h Z ..:.r...q 9 t > 8 R $.....Z ..y.d.d.d.g.i.@.: u t i u k S S U.I.XXI %XmXIXDX",
"PXLXAXx N }.}.7.S V q 7.I.}.`.! i f X.#.-.O.@.@.$.;.l.l.c.S &.V t C h g.l.x.s.x.U.k.k.x.a.d.s p a P.-X:XI.e.P.S $.h.T./.I lXPXGX",
"DXIXAXz ! I.T.I.7.I.-X-XI.T.:X:Xg k h *.z.Y.g.x.f.x.c.x.c.V o.9 y C q f.s.x.f.l.s.z.Y.>.a.h f A -X-XI.U.a.I.U.U.p.U.a.I.W Z.LXJX",
"DXIXAXr 1.j.j.a.T.U.a.*.a.p.R 6 j X.y.l.Y.z.Y.>.x.c.x.l.c.V o.9 B p w f.k.z.z.z.x.x.f.c.s f N e.j.i.>.=.#.&.$.@.6.a.#.g.t.c kXKX",
"IXLXLXW P j.i.*.o.o.:.$.y.<.j d k 3.x.Y.z.>.>.z.x.z.z.z.z.V o.9 B q s f.f.z.x.l.k.Y.f.k.=.S t 4.p.;.-.;.:.&.#.=.%.X.+.=.t.b [.SX",
"IXFXIXoXb p.t.+.6.#. .$.r.h k 5 3.i.d.l.k.z.Y.x.x.k.x.d.k.V Z t B 9 w f.k.k.z.>.Y.>.Y.z.g.V P 4 1.r.O.@.*.$.2. .+.+.+.=.t.5.n.KX",
"IXVXIXhXz 4.t.t.%.6.$.:.+.w X.R r.d.d.s.f.l.f.s.l.l.x.g.s.q Z t B B s h.z.k.z.z.x.c.k.k.x.7.g 5 u o.+.r.#.o.3.Z X.+.O.p.4.b 9.KX",
"IXJXVXcXA.4.<.y.$.$.o.o.h s X.$. .#.:.i.s.h.s.i.i.u.u.y.r.9 Z t B B q #.z.k.z.f.s.>.c.x.g.a.p.7 % j $.@. ...2.$.j @.+.t.b z oXAX",
"GXJXJXIXlX5.<.3.=.+.$.1.f $.*.=.$.#.@.$.#.:.2.r.:.*.#.o.+.: f e B t w ..s.s.s.s.f.c.v.u.p.l.d.f 4 u X.@.@.3. . .$.@.i.b 7 x CXLX",
"HXIXIXGXIXZX(.r 4.p.i.$.%.#.#.$.$.$.X.o. .S o.o.X.S Z p...s 4.- o z q Z a.a.i.i.>.s.>.>.u.u.;.i.d 5  . .*.:.h.#.4.4.i - W 8XIXFX",
"DXJXJXJXIXIXAXjX9.d R o.6. .+.*.@.%.O. . . .%.....%.,.h.O.h 4.4 < P Z ..s.u.=.;.y.6.2.2.2.2.6.6.2.%.h.%.1.k d b 7 & e W.cXJXBXBX",
"JXIXIXJXGXKXIXIXAX(.% f 3.2.#.2.#.#.+.=.+.O. . .$.X. .i.*.<.t.u & j *.s.l.r.=.#.*.#.$.=.*.;.>.u.:.y.$.a.A - / I T ).uXGXJXVXGXJX",
"IXGXJXIXIXHXHXKXVXpXQ.8.4 8 5 f <.1.1.1.<.3.<.<.3.o.o.6.$.3.p.u e A r.u.i.2.6.p.i.y.*.y.i.i.s.s.4.<.A u & 1 GXVXAXIXIXGXVXJXGXJX",
"IXIXIXIXIXIXJXHXVXvXDX^ e e : $ % % % % 6 4 6 6 7 6 6 7 7 7 c * X e A 1.S g p 8 $ $ @ $ $ % & @ % % % & r eXGXPXIXIXHXJXGXFXKXIX",
"LXIXIXLXSXHXHXVXDXDX).8 e $ # , - - < # = - - - % # $ + & - = . o = @ % @   X @ $ $ $ # # , , #   > % : + %XkXIXIXIXIXKXIXIXIXZX",
"FXIXIXIXIXIXIXIXDXwX6 6 p 4 % # < < < < < < - < = . . X + - o o . # $ O , . $ @ : 8 9 t t t 8 8 t : e : r c AXFXIXGXHXPXIXJXIXIX",
"IXHXDXPXPXPXHXHXAXG i b 5 k p q > : : 9 : 8 e e > O . O $ # X . = - @ X . . # t < e < < > $ $ X $ %   < = X ).DXIXIXIXHXHXIXJXJX",
"IXIXIXIXIXIXIXKX).- 7 b 7 d p : t 8 8 : $ # ; * -   < $ @ $ X = x = =   =   1 - ; + @ > + = : > t e i d i ; F PXIXIXIXKXIXIXIXIX",
"IXIXIXIXIXIXIXIXhXY e i i d q B i u u t ! )./ e r P   % - - = * 1X* + ; # @ l y * - (.P.< @ a 9 t t e - * W eXLXLXPXIXKXIXIXIXIX",
"IXIXIXIXKXIXIXJXIXmXwX{.8.N : : a u f e ! }.^ e Y (.% # - + * c kXz % % % 6 ( !.F % L.P.$ - < $ < F Y ).kXZXZXPXIXKXIXIXIXIXJXIX",
"KXIXIXIXIXIXIXIXGXIXbXMXSXDXwXXXT p 8 4 Y |.Z.l U ).r < < ; r I IXoXl * - r P.!.l y ).} Y 0.W.wXZXZXIXBXbXGXPXDXIXIXIXJXIXIXIXKX",
"IXIXJXIXIXIXIXIXGXJXJXJXIXLXlX2XjX2XD.Z.V.'.'.r R.Q., Y Q !.|.eXVXIXmXkX'.^ R.!.W._ 1XY 7X5X,X!.[.oX7XJXIXvXCXDXGXIXKXJXIXKXIXIX",
"IXIXIXIXIXKXIXIXBXIXGX[.V.[ D.n.B.S.N.D.[ n.(.I W.{.H IXFXIXHXIXJXJXJXLXZXkXR.|.{.~ [.x n.n.H.H.n.D.E E E { 7XDXIXIXIXIXIXIXIXIX",
"IXIXKXIXIXIXIXLXIXKX2Xv N.<X<X<XJ.J.F.J.H.N.N.m.A.~.C.LXIXIXKXIXBXIXIXJXIXcX/ '.}.W [ B.J.H.G.G.B.<XH.<X<XE l nXIXIXKXIXIXIXIXIX",
"IXIXIXIXIXIXIXIXPXLXjXm H.G.B.S.S.S.S.K.K.G.K.G.E W V.W.@XcXZXIXIXFXFXJX7XQ.x W B.K.K.G.G.S.N.S.F.b.F.F.B.H.x mXIXKXIXJXIXLXIXIX",
"KXIXIXIXIXIXIXKXPXLXE N.N.M.M.m.b.M.M.b.B.B.S.S.M.B.B.[ v W KXDXPXDXMXxX; n B.[ N.N.B.N.m.m.m.m.m.[ M.m.B.n.[ ~.GXGXIXKXIXIXIXIX",
"IXJXIXIXIXIXIXIXKX8X1 v [ [ [ [ ] ] m m m m v v v n n v x / CXSXHXJXIXyXG l v v M M M v n n n v n n n ] n x 1 l HXKXJXIXIXIXIXIX",
"IXIXIXIXIXIXIXIXSXIXwX>X[.oX[.D.[.[.[.oX,X,XXXXXoX'.W.'.%XcXIXFXGXIXIXFXiX+X#X#X@XoXoX@X1X7XoX#X~.'.'.#X1X1X6XcXIXKXIXKXIXIXIXIX",
"IXIXIXKXIXIXIXJXNXPXPXPXIXIXIXIXLXLXLXPXLXKXDXDXKXIXIXIXGXIXHXJXGXGXBXBXPXIXSXJXSXNXHXHXJXPXJXKXJXJXKXKXIXmXBXJXIXGXIXIXIXIXKXIX",
"IXKXIXIXIXIXIXIXIXJXIXHXPXHXHXGXIXIXIXJXHXGXJXJXHXJXIXIXbXHXvXIXJXIXIXGXFXBXJXJXHXJXPXIXKXKXIXIXJXIXIXIXIXPXGXIXGXIXIXIXJXIXIXKX",
"IXIXIXIXIXIXIXIXmXIXIXIXIXIXIXVXSXKXPXJXIXJXIXJXJXJXGXJXJXIXPXIXIXIXIXIXHXIXIXJXIXIXIXIXIXIXKXLXIXIXDXPXDXKXIXIXIXIXIXIXIXIXIXIX",
"IXIXIXIXIXIXIXIXIXJXbXJXIXIXFXIXIXIXIXIXIXGXJXFXFXIXIXIXHXHXJXGXJXJXIXKXIXIXJXbXIXKXGXIXIXIXIXJXIXIXLXIXIXIXIXGXIXIXIXIXIXIXIXKX",
"IXKXIXIXKXIXIXIXDXIXIXIXGXIXPXPXIXIXIXPXIXIXPXIXIXPXHXIXGXIXIXIXIXJXIXKXIXSXIXIXIXIXIXPXJXPXJXIXJXIXJXIXJXHXIXFXIXIXIXIXIXIXIXIX"
};
