/* XPM */
static char *result[] = {
/* columns rows colors chars-per-pixel */
"32 32 5 1 ",
"  c black",
". c gray20",
"X c gray40",
"o c gold",
"O c white",
/* pixels */
"                                ",
"                                ",
"                                ",
"                                ",
"                                ",
"                                ",
"           OO      OO           ",
"           OO      OO           ",
"                                ",
"                                ",
"                                ",
"                                ",
"          ..........            ",
"         ............           ",
"        ...................     ",
"    ..  ......oo...... ....     ",
"    ..  ......oo......   ..     ",
"    ..  ......oo......   ..     ",
"    ..  ....oooooo....   XX     ",
"    XX  ..oooooooooo..          ",
"        oooooooooooooo          ",
"        ..............          ",
"        ..............          ",
"        ............            ",
"                                ",
"                                ",
"                                ",
"                                ",
"                                ",
"                                ",
"                                ",
"                                "
};
