/* XPM */
static char *result[] = {
/* columns rows colors chars-per-pixel */
"32 32 5 1 ",
"  c black",
". c gray20",
"X c gray40",
"o c gold",
"O c white",
/* pixels */
"                                ",
"                                ",
"                                ",
"                                ",
"                                ",
"                                ",
"           OO      OO           ",
"           OO      OO           ",
"                                ",
"                                ",
"                                ",
"                                ",
"          ..........            ",
"         ............         o ",
"        ...................... o",
"        ......oo......  ......o ",
"    ..  ......oo......      XX  ",
"    ..  ......oo......          ",
"    ..  ....oooooo....          ",
"    ..  ..oooooooooo..          ",
"    XX  oooooooooooooo          ",
"        ..............          ",
"        ..............          ",
"        ............            ",
"                                ",
"                                ",
"                                ",
"                                ",
"                                ",
"                                ",
"                                ",
"                                "
};
