/* XPM */
static char * stone_wall_64[] = {
"64 64 5 1",
". c #6D7480",
"# c #24262B",
"+ c #8891A0",
"* c #505560",
"o c #A7AFBD",
"################################################################",
"#***************#***************#***************#***************",
"#.........o.....#.....o.........#...............#...............",
"#...............#...............#...............#...............",
"#...............#.........o.....#...............#...............",
"#.....o.........#...............#...............#........o......",
"#...............#...............#...............#...............",
"#++o++++++++++++#+++++++++++++++#+++++++++++++++#+++++++++++++++",
"################################################################",
"********#***************#***********o***#***************#*******",
"........#...............#...............#...............#.......",
"........#............o..#............o..#...............#.......",
"........#......o........#...............#...............#.......",
"........#..........o..o.#...............#...............#.......",
"........#...............#...............#...............#.......",
"++++++o+#+++++++++++++++#+++++++o+++++++#+++++++++++++++#+++++++",
"################################################################",
"#***************#***************#************o**#**o************",
"#o..............#...............#...............#.............o.",
"#...............#...............#...............#...............",
"#...............#......o........#.........o.....#.........o.....",
"#...............#...............#...............#...............",
"#o..............#....o..........#.......o.......#..........o....",
"#+++++++++++++++#+++++++++++++++#+++++++++++++++#+++++++++++++++",
"################################################################",
"********#***************#*****oo********#***************#*******",
"........#...............#...............#...............#...o...",
"........#.......o.......#...............#.........o.....#....o..",
"........#...............#.........o.....#...............#.......",
"........#o..............#...o...........#...............#.......",
"........#...............#...............#...............#.....o.",
"++++++++#+++++++++++++++#+++++++++++++++#+++++++++++++++#+++++++",
"################################################################",
"#***************#***************#***************#***************",
"#...............#...............#...............#..........o....",
"#...o...........#...............#...............#..........o....",
"#...............#...............#...............#...............",
"#...............#...............#....o.........o#......o........",
"#...............#..........o....#...............#...............",
"#+++++++++++++++#+++++++++++++++#++++++++++o++++#++++++o++++++++",
"################################################################",
"********#***************#***************#***************#*******",
"........#...............#...............#...............#.......",
"........#...............#.........o.....#.............o.#.......",
".......o#..........o....#...............#.............o.#.......",
"........#.o...........o.#...............#...............#.......",
"........#...............#...............#...............#.......",
"++++o+++#+++++++++o+++++#+++++++++++++++#+++++++++++++++#+++++++",
"################################################################",
"#***************#***************#***************#***********o***",
"#...............#...............#...............#...............",
"#....o..........#..........o....#...............#...............",
"#...............#...............#...............#...............",
"#...............#...............#......o........#...............",
"#...............#...............#...............#...............",
"#+++++++++++++++#++o++++++++++++#++++++++++++++o#+++++++++++++++",
"################################################################",
"********#*****o*********#***************#***************#*******",
"........#...............#........o......#...............#.......",
"........#.......o.......#...............#...............#.......",
"...o....#...............#...............#..........o....#.......",
"........#...............#...............#...............#.......",
"........#...............#...............#...............#.......",
"++++++++#+++o+++++++++++#+++++++o+++++++#++++o++++++++++#+++++++"
};
