/* XPM */
static char *_755672931519[] = {
/* columns rows colors chars-per-pixel */
"64 64 216 2 ",
"   c #000000",
".  c #0B0101",
"X  c #000B02",
"o  c #0D0B01",
"O  c #02030B",
"+  c #0E000B",
"@  c #040A0A",
"#  c #0B0B0A",
"$  c #130102",
"%  c #1D0000",
"&  c #1D0B02",
"*  c #13010A",
"=  c #15090A",
"-  c #001303",
";  c #0A1403",
":  c #04120B",
">  c #0C110C",
",  c #12110E",
"<  c #121407",
"1  c #000314",
"2  c #000B1D",
"3  c #1A0717",
"4  c #081B15",
"5  c #131313",
"6  c #141B15",
"7  c #151418",
"8  c #1C1C1C",
"9  c #1A1917",
"0  c #2B0501",
"q  c #270603",
"w  c #3C0602",
"e  c #340A05",
"r  c #381200",
"t  c #221B1B",
"y  c #211815",
"u  c #2B1A0B",
"i  c #0D211F",
"p  c #1C241C",
"a  c #1B3612",
"s  c #21291A",
"d  c #303111",
"f  c #362A0B",
"g  c #1A0320",
"h  c #051320",
"j  c #181A24",
"k  c #251E24",
"l  c #331E27",
"z  c #250827",
"x  c #1B2223",
"c  c #0B2E32",
"v  c #242424",
"b  c #2B2B2B",
"n  c #272926",
"m  c #372C29",
"M  c #293729",
"N  c #3A2D3A",
"B  c #2B3233",
"V  c #343434",
"C  c #343A35",
"Z  c #3C3C3C",
"A  c #38383A",
"S  c #333232",
"D  c #430304",
"F  c #4B0A0C",
"G  c #470806",
"H  c #580B0A",
"J  c #4C0A11",
"K  c #490810",
"L  c #4B1610",
"P  c #521619",
"I  c #54110B",
"U  c #631700",
"Y  c #6A0E14",
"T  c #6B0A10",
"R  c #5A2E2F",
"E  c #473022",
"W  c #403B3C",
"Q  c #4B393A",
"!  c #463436",
"~  c #4B2E2A",
"^  c #37461D",
"/  c #214335",
"(  c #36443B",
")  c #46453B",
"_  c #504330",
"`  c #42683F",
"'  c #033454",
"]  c #3F3F41",
"[  c #003D76",
"{  c #082C60",
"}  c #4A3A42",
"|  c #3F4540",
" . c #39574B",
".. c #256542",
"X. c #024D60",
"o. c #444444",
"O. c #454C46",
"+. c #4C4B45",
"@. c #4C474A",
"#. c #4C4C4C",
"$. c #494644",
"%. c #514D47",
"&. c #5A504F",
"*. c #4D4B50",
"=. c #495D54",
"-. c #535353",
";. c #5B5B5B",
":. c #575756",
">. c #4F4D51",
",. c #624B50",
"<. c #645958",
"1. c #625B53",
"2. c #77575A",
"3. c #765A4F",
"4. c #526659",
"5. c #67675E",
"6. c #7B625E",
"7. c #544E6B",
"8. c #6A5868",
"9. c #72576A",
"0. c #5F6C62",
"q. c #556D63",
"w. c #636363",
"e. c #6C6462",
"r. c #6C6C6B",
"t. c #656864",
"y. c #716969",
"u. c #6C716C",
"i. c #66776A",
"p. c #7F6F70",
"a. c #727372",
"s. c #7A7573",
"d. c #7C7C7C",
"f. c #747877",
"g. c #830000",
"h. c #9F0C04",
"j. c #87191C",
"k. c #B51A03",
"l. c #8E3E1D",
"z. c #A43635",
"x. c #E3010D",
"c. c #E61B03",
"v. c #F91200",
"b. c #FB1B01",
"n. c #EE171E",
"m. c #FE220A",
"M. c #D1082F",
"N. c #FF022A",
"B. c #C12B2A",
"V. c #D02B0F",
"C. c #837677",
"Z. c #8A6F76",
"A. c #D85349",
"S. c #F2575B",
"D. c #CC7B68",
"F. c #788B7B",
"G. c #84827E",
"H. c #82907F",
"J. c #146F9C",
"K. c #126DB3",
"L. c #0E6FB7",
"P. c #4B7988",
"I. c #7E7E86",
"U. c #1774C4",
"Y. c #6F9983",
"T. c #778C85",
"R. c #838384",
"E. c #8C8C8B",
"W. c #858B85",
"Q. c #958786",
"!. c #8D998F",
"~. c #94988B",
"^. c #939393",
"/. c #9D9D9C",
"(. c #959C94",
"). c #918B96",
"_. c #A59796",
"`. c #A48A8B",
"'. c #9BA29C",
"]. c #A2A48F",
"[. c #A8B69C",
"{. c #A3A3A3",
"}. c #ADADAD",
"|. c #A9AEA7",
" X c #ABB4BA",
".X c #B3B3B3",
"XX c #BCBCBC",
"oX c #B2A9BA",
"OX c #DFAD96",
"+X c #E1A197",
"@X c #F3B59C",
"#X c #C4B0B1",
"$X c #DFBEB9",
"%X c #D2CDA7",
"&X c #C6AEC4",
"*X c #B6C8C6",
"=X c #C5C5C5",
"-X c gray80",
";X c #CCC1C0",
":X c #D5D5D5",
">X c #DCDCDC",
",X c #FFD9CB",
"<X c #FFC9D3",
"1X c #E4CBC7",
"2X c #F4F1DE",
"3X c #FAE9D5",
"4X c #DBD9E6",
"5X c #FFDBFF",
"6X c #EBEBEB",
"7X c #E6E6E6",
"8X c #F5E6E6",
"9X c #FFEEF8",
"0X c #F3F3F3",
"qX c #FCFCFC",
"wX c #FAF9FE",
"eX c #EAF0E6",
/* pixels */
"                                  #     @                 #     #           @                                                   ",
"                                          @   8 ;.,               #       #   @                                                 ",
"                                    . @   .     r.-X8               #   @                                                       ",
"                                          @ R.a.#.=XqX-.  9           5                                                         ",
"                                #     @     /.6XwX0XqXwX'.  # @ @ 5 @       .                                                   ",
"                                  @     @   5 a.0XqXqX7XqXd.W >X:X    @   #                                                     ",
"                                  #       #     -.wX6XE.qX.X}.-X#XXX@ , #   #                                                   ",
"                                      @     5   -.-XqX{.:XE.C :X:X@.Z   -.                                                      ",
"                                            @   n @.d.w.A -., R.5.$ +.v a.>   >                                                 ",
"                                      @ .             #.o.-.^.R.C.  W +.O.      @ # @         #                                 ",
"                                    @           @ 7   R.>..X}.=X#XQ.<.%.r.  @           #                                       ",
"                                                  o.V A ;.f.}.E.,._.e.e.5 p :.  #                                               ",
"                                @       @ @       $.@.( v #.r.=X_.! &.+.9 5 f.      # @       .                                 ",
"                                    @       @ A # $.V :.d.;.  v = = G.:.n $.}   5                                               ",
"                                    #       # w.> o.#., w.E.#   o o G.5.C O.| > u.7       @   @                                 ",
"                                        @     | } >.V b ;.-.;.  , ;.=.u.: ) o.V :.    @   #                                     ",
"                                    #         V V ;.8 A Z C -X#.Q ;Xs :.x n o.} #.        @   @                                 ",
"                                  #     # v Z v V E.  | v   }.R.C.;X  6 B k T.v n     #     #                                   ",
"                                    #     C #.@.Z 9 5 Z @ @ 8.E.<.Q     #.  V N n w.W                                           ",
"                                      #   # #.o.A #   Z 5   s w.n 9   # A   @ w.:.V b     ,                                     ",
"                                  5       # n 8     #   o.a.C.# m s.V o.#       # ;.    #   #                                   ",
"                                    #         V #       u.;.#     s E.#.      O -.#     # #                                     ",
"                                        #     V a.5     j /.9 @ ,   /.8     7 :.k # #         #                                 ",
"                                @   @     #     $.a.v     5 /.    u.b     7 w.:.>     #     #                                   ",
"                                @               : 2.T.8.  } 9 s.C.} V O A I.Z.X                                                 ",
"                                      @ @       X ~ 0.f.).! : r.$.i :.R.T.s.y :                                                 ",
"                                                . #.X 0.|.q ; ( M X n E.T.  A +                                                 ",
"                                  .             = C   o.H.P K m ; J q 5.0.. n N                                                 ",
"                                          @     #.b 5 m F.F M.f u M.q F.( .   W.5 #                                             ",
"                                                =.    3 i.e N.l.U N.. 1.8 Z 5 B 7 #                                             ",
"                                      #       # Z :.B B u.$ n.k.V.x.; y.1 >.# W.                                                ",
"                                            5 b m R. Xh &.^ k.b.v.k.a 9.1 8..X:.                                                ",
"                                  @           G.=.XX;.2 p &Xj.m.v.z.1X- * %.].4X                                                ",
"                                      @       /.C N Q @ X.T.r c.c.q s.  + v 0.z   # #       #                                   ",
"                                            # XX9X.Xy   L.r._ c.n.a s.O 1 x Y.7.#                                               ",
"                                            n /.$X<X].' [ ) y h.g.=.o.# 1 F.3X2XW #                                             ",
"                                #       # @ $.r.D.S.(.K.c M O & . @ q.  . 3.A.+Xn                                               ",
"                                            ;.^.@XA.P.K.f ).3  .X h *Xo 3 E B.+XV     @   #                                     ",
"                                  @ @       o.>X8X%XJ.{ a ).l 6   9.y.< O ( ,X2Xa.5   .       #                                 ",
"                                            5 >X5X..U.$ B 7.4.[.E.x %.M 3 @ eX9Xb     @   @                                     ",
"                                .     @     # E.qX*X4 O @.@.s i.-.a.b ]   _.wX0X5                                               ",
"                                .         o   R.0XwXx O *.  t.!.^.p   -.  .XqXqX8 #                                             ",
"                                              W.`.Q.b p 5   w.'.W.8.  v x u.6XeX# @                                             ",
"                                @   .     X   '.R y.< O.6 # _.#.#.|.7   O.d.wX{.                                                ",
"                                    .       @ _.K ! . |   u.:., O.Z t.# A o.&Xn                                                 ",
"                                    .   X     3.e u   O.6 -.  , n   #.5 #.  @       #                                           ",
"                                X   . O X   $ P & . > B @.  # @ Z     @.] ,                                                     ",
"                                  .     X   0 H     X #.W ;.a.( r.#.Z 5 t.#                                                     ",
"                                    = O X . J 0   #   R.@.V # -.w.d.-.  w.v   #                                                 ",
"                                    O     q F %       n #.    # @.@.G.  n                                                       ",
"                                .       & D F .     @ k n       o.5 .X                                                          ",
"                                        w H D         8 v       $.  XX@     5                                                   ",
"                                      . G T w X         u.9   b o.  ^.      #                                                   ",
"                                      o G Y 0 X       # R.n @ -.Z 5 a.                                                          ",
"                                @ $ . o D H $ .       7 #.9   Z b b w.      #                                                   ",
"                                  $ . o D H . .   #     -.A   @.j b 0.                                                          ",
"                                * X   H Y . -     #     #.j   C.n :.n @                                                         ",
"                                @   . I D .     #     # p r.  >.S C.5                                                           ",
"                                  $ e L q .   @     j   @ d.@ s.w.{.5     @ @                                                   ",
"                                X $ w e             o.#   y.  t.@.E.5   $.                                                      ",
"                                X $ K $ X           w.V a.w.7 f., 7 {.A r.                                                      ",
"                                X $ q       .   #   d.E.A S #././.n   >.-.    #                                                 ",
"                                    o     @   X     7 }.f.}.-.w.  w.W.r.E.                                                      ",
"8 8 8 8 8 8 8 8 8 8 8 8 8 8 8 8 9 p 6 x 7 k t i b 5 8 8 n 5 v 9 7 8 8 n # t v n 8 8 8 8 8 8 8 8 8 8 8 8 8 8 8 8 8 8 8 8 8 8 8 8 "
};
