/* XPM */
static char * wood_beams_64[] = {
"64 64 5 1",
". c #7A4E2A",
"| c #5F3C20",
"+ c #9B6A3C",
"* c #B37A47",
"= c #3B2614",
"*||......+...||.=|+........+.||.=||.+........+|*=||...+......||+",
".||.....+....||.=+|.......+..*|.=||+........+||.=||..+.......|+.",
".||....+...*.||.=||......+...||.=|+........+.||.=||.+.....*..+|.",
".||...+......||+=||.....+....||.=+|.....*.+..||.=||+........+||.",
".||..+.......|+.=||...*+.....||.=||......+...||.=|+........+.||.",
".||.*........+|.=||...+......||+=||.....+....||.=+|*......+..||.",
".||+........+||.=||..+.......|+.=*|....+.....||.=||......+...||.",
".|+........+.||*=||.+........+|.=||...+......||+=||.....+....|*.",
".+|.......+..||.=||+........+||.=||..+......*|+.=||....+.....||.",
"+||......+...||.=|+.......*+.||.=||.+........+|.=||...+......||+",
".||.....*....||.=+|.......+..||.=||+........+||.=||..+.*.....|+.",
".||....+.....||.=||......+...||.=|+..*.....+.||.=||.+........+|.",
".||...+......||+=||*....+....||.=+|.......+..||.=||+........+||.",
".*|..+.......|+.=||....+.....||.=||......+...||.=|+........+.||.",
".||.+........+|.=||...+......|*+=||.....+....||.=+|.......+..||.",
".||+........*||.=||..+.......|+.=||....+.....||.=||......+.*.||.",
".|+........+.||.=||.+........+|.=||...+..*...||+=||.....+....||.",
".+|.......+..||.=||+...*....+||.=||..+.......|+.=||....+.....||.",
"+||..*...+...||.=|+........+.||.=||.+........+|.=||.*.+......||+",
".||.....+....||.=+|.......+..||.=|*+........+||.=||..+.......|+.",
".||....+.....||.=||......+...||.=|+........+.||.=||.+........+|*",
".||...+......||+=||.....+....||.=+|.......+..*|.=||+........+||.",
".||..+.......|+.=||....+...*.||.=||......+...||.=|+........+.||.",
".||.+....*...+|.=||...+......||+=||.....+....||.=+|.....*.+..||.",
".||+........+||.=||..+.......|+.=||...*+.....||.=||......+...||.",
".|+........+.||.=||.*........+|.=||...+......||+=||.....+....||.",
".+*.......+..||.=||+........+||.=||..+.......|+.=*|....+.....||.",
"+||......+...||.=|+........+.||*=||.+........+|.=||...+......||+",
".||.....+....*|.=+|.......+..||.=||+........+||.=||..+......*|+.",
".||....+.....||.=||......+...||.=|+.......*+.||.=||.+........+|.",
".||...+......||+=||.....*....||.=+|.......+..||.=||+........+||.",
".||..+*......|+.=||....+.....||.=||......+...||.=|+..*.....+.||.",
".||.+........+|.=||...+......||+=||*....+....||.=+|.......+..||.",
".||+........+||.=*|..+.......|+.=||....+.....||.=||......+...||.",
".|+........+.||.=||.+........+|.=||...+......|*+=||.....+....||.",
".+|.......+..||.=||+........*||.=||..+.......|+.=||....+.....||.",
"+||......+*..||.=|+........+.||.=||.+........+|.=||...+..*...||+",
".||.....+....||.=+|.......+..||.=||+...*....+||.=||..+.......|+.",
".||....+.....||.=||..*...+...||.=|+........+.||.=||.+........+|.",
".||*..+......||+=||.....+....||.=+|.......+..||.=|*+........+||.",
".||..+.......|+.=||....+.....||.=||......+...||.=|+........+.||.",
".||.+........+*.=||...+......||+=||.....+....||.=+|.......+..*|.",
".||+........+||.=||..+.......|+.=||....+...*.||.=||......+...||.",
".|+........+.||.=||.+....*...+|.=||...+......||+=||.....+....||.",
".+|....*..+..||.=||+........+||.=||..+.......|+.=||...*+.....||.",
"+||......+...||.=|+........+.||.=||.*........+|.=||...+......||+",
".||.....+....||.=+*.......+..||.=||+........+||.=||..+.......|+.",
"*||....+.....||.=||......+...||.=|+........+.||*=||.+........+|.",
".||...+......||+=||.....+....*|.=+|.......+..||.=||+........+||.",
".||..+.....*.|+.=||....+.....||.=||......+...||.=|+.......*+.||.",
".||.+........+|.=||...+......||+=||.....*....||.=+|.......+..||.",
".||+........+||.=||..+*......|+.=||....+.....||.=||......+...||.",
".|+.*......+.||.=||.+........+|.=||...+......||+=||*....+....||.",
".+|.......+..||.=||+........+||.=*|..+.......|+.=||....+.....||.",
"+||......+...||*=|+........+.||.=||.+........+|.=||...+......|*+",
".||.....+....||.=+|.......+..||.=||+........*||.=||..+.......|+.",
".||....+.....||.=||......+*..||.=|+........+.||.=||.+........+|.",
".||...+.*....||+=||.....+....||.=+|.......+..||.=||+...*....+||.",
".||..+.......|+.=||....+.....||.=||..*...+...||.=|+........+.||.",
".||.+........+|.=||*..+......||+=||.....+....||.=+|.......+..||.",
".*|+........+||.=||..+.......|+.=||....+.....||.=||......+...||.",
".|+........+.||.=||.+........+*.=||...+......||+=||.....+....||.",
".+|.......+.*||.=||+........+||.=||..+.......|+.=||....+...*.||.",
"+||......+...||.=|+........+.||.=||.+....*...+|.=||...+......||+"
};
