/* XPM */
static char * wood_planks_64[] = {
"64 64 5 1",
". c #7A4E2A",
"- c #5F3C20",
"+ c #9B6A3C",
"= c #3B2614",
"* c #B37A47",
"*......+......+......+......+*.....+......+......+......+.*....+",
"------+----*-+------+------+------+-----*+------+------+------+-",
"-----+------+------+--*---+------+------+------+---*--+------+--",
"....*......+......+......+......+*.....+......+......+......+.*.",
"...+......+....*.+......+......+......+.....*+......+......+....",
"..+......+......+......+..*...+......+......+......+...*..+.....",
".+......*......+......+......+......+*.....+......+......+......",
"+......+......+....*.+......+......+......+.....*+......+......+",
".*....+......+......+......+..*...+......+......+......+...*..+.",
".....+......*......+......+......+......+*.....+......+......+..",
"....+......+......+....*.+......+......+......+.....*+......+...",
"...+.*....+......+......+......+..*...+......+......+......+...*",
"--+------+------*------+------+------+------+*-----+------+-----",
"-+------+------+------+----*-+------+------+------+-----*+------",
"+......+.*....+......+......+......+..*...+......+......+......+",
"......+......+......*......+......+......+......+*.....+......+.",
"================================================================",
"----+------+-*----+------+------+------+--*---+------+------+---",
"---+------+------+------*------+------+------+------+*-----+----",
"..+...*..+......+......+......+....*.+......+......+......+.....",
".+......+......+.*....+......+......+......+..*...+......+......",
"+......+......+......+......*......+......+......+......+*.....+",
"......+...*..+......+......+......+....*.+......+......+......+.",
".....+......+......+.*....+......+......+......+..*...+......+..",
"...*+......+......+......+......*......+......+......+......+*..",
"...+......+...*..+......+......+......+....*.+......+......+....",
"..+......+......+......+.*....+......+......+......+..*...+.....",
".+.....*+......+......+......+......*......+......+......+......",
"+------+------+---*--+------+------+------+----*-+------+------+",
"*-----+------+------+------+-*----+------+------+------+--*---+-",
".....+.....*+......+......+......+......*......+......+......+..",
"....+......+......+...*..+......+......+......+....*.+......+...",
"================================================================",
"--+------+-----*+------+------+------+------*------+------+-----",
"-+------+------+------+---*--+------+------+------+----*-+------",
"+......+*.....+......+......+......+.*....+......+......+......+",
"......+......+.....*+......+......+......+......*......+......+.",
".*...+......+......+......+...*..+......+......+......+....*.+..",
"....+......+*.....+......+......+......+.*....+......+......+...",
"...+......+......+.....*+......+......+......+......*......+....",
"..+..*...+......+......+......+...*..+......+......+......+....*",
".+......+......+*.....+......+......+......+.*....+......+......",
"+......+......+......+.....*+......+......+......+......*......+",
"......+..*...+......+......+......+...*..+......+......+......+.",
"-----+------+------+*-----+------+------+------+-*----+------+--",
"--*-+------+------+------+-----*+------+------+------+------*---",
"...+......+..*...+......+......+......+...*..+......+......+....",
"..+......+......+......+*.....+......+......+......+.*....+.....",
"================================================================",
"+------+------+--*---+------+------+------+---*--+------+------+",
"------+------+------+------+*-----+------+------+------+-*----+-",
".....+....*.+......+......+......+.....*+......+......+......+..",
"....+......+......+..*...+......+......+......+...*..+......+...",
"...*......+......+......+......+*.....+......+......+......+.*..",
"..+......+....*.+......+......+......+.....*+......+......+.....",
".+......+......+......+..*...+......+......+......+...*..+......",
"+......*......+......+......+......+*.....+......+......+......+",
"......+......+....*.+......+......+......+.....*+......+......+.",
"*....+......+......+......+..*...+......+......+......+...*..+..",
"....+......*......+......+......+......+*.....+......+......+...",
"---+------+------+----*-+------+------+------+-----*+------+----",
"--+-*----+------+------+------+--*---+------+------+------+---*-",
".+......+......*......+......+......+......+*.....+......+......",
"+......+......+......+....*.+......+......+......+.....*+......+"
};
